<svg xmlns="http://www.w3.org/2000/svg" xmlns:xlink="http://www.w3.org/1999/xlink" width="599" zoomAndPan="magnify" viewBox="0 0 449.25 138.749998" height="185" preserveAspectRatio="xMidYMid meet" version="1.0"><defs><clipPath id="cb34d4124c"><path d="M 354 29 L 374.855469 29 L 374.855469 46 L 354 46 Z M 354 29 " clip-rule="nonzero"/></clipPath><clipPath id="aac237c9f5"><path d="M 2 0 L 447 0 L 447 137.691406 L 2 137.691406 Z M 2 0 " clip-rule="nonzero"/></clipPath></defs><g clip-path="url(#cb34d4124c)"><path fill="#020203" d="M 360.582031 30.417969 C 362.371094 31.308594 363.085938 32.578125 363.886719 34.167969 C 363.902344 34.140625 363.917969 34.117188 363.917969 34.101562 C 364.3125 32.632812 366.03125 30.992188 367.335938 30.183594 C 371.109375 27.832031 374.855469 29.71875 374.785156 32.878906 C 374.679688 37.648438 368.0625 43.234375 367.816406 42.796875 C 368.464844 42.101562 374.25 38.050781 374.289062 33.113281 C 374.324219 28.636719 369.285156 28.597656 366.046875 31.582031 C 363.675781 33.773438 364.402344 34.570312 363.917969 34.5625 C 363.5625 34.554688 363.359375 32.597656 361.003906 31.035156 C 356.355469 27.953125 351.90625 33.558594 357.089844 39.40625 C 358.527344 41.03125 362.589844 44.429688 364.902344 45.039062 C 364.890625 44.996094 364.890625 44.960938 364.875 44.925781 C 364.820312 44.800781 364.050781 42.507812 364.183594 39.800781 C 364.058594 39.785156 364.078125 39.800781 363.558594 39.816406 C 362.257812 39.871094 362.132812 39.277344 363.527344 39.164062 C 363.832031 39.132812 364.078125 39.125 364.21875 39.113281 C 364.367188 37.929688 364.480469 37.019531 365.078125 37.121094 C 365.785156 37.234375 365.445312 38.214844 365.40625 39.082031 C 365.6875 39.082031 366.082031 39.0625 366.414062 39.105469 C 367.238281 39.210938 367.328125 39.894531 366.421875 39.851562 C 366.179688 39.84375 365.847656 39.820312 365.375 39.808594 C 365.171875 44.007812 365.257812 43.0625 365.433594 45.003906 C 365.539062 46.140625 362.125 44.179688 359.867188 42.335938 C 356.96875 39.972656 354.515625 37.957031 354.480469 34.1875 C 354.457031 30.898438 357.300781 28.792969 360.582031 30.417969 Z M 360.582031 30.417969 " fill-opacity="1" fill-rule="nonzero"/></g><g clip-path="url(#aac237c9f5)"><path fill="#013172" d="M 30.828125 124.390625 C 28.527344 122.804688 28.945312 116.777344 31.472656 115.089844 C 32.683594 114.28125 38.277344 113.132812 43.902344 112.539062 C 54.007812 111.472656 54.136719 111.394531 54.136719 106.277344 C 54.136719 102.023438 53.609375 101.035156 51.195312 100.777344 C 49.578125 100.609375 46.785156 98.636719 44.988281 96.402344 C 42.0625 92.765625 40.6875 92.359375 31.996094 92.535156 C 23.789062 92.699219 21.949219 92.222656 20.179688 89.480469 C 19.03125 87.691406 18.089844 85.117188 18.089844 83.753906 C 18.089844 82.003906 16.023438 80.898438 11.070312 79.992188 C 5.898438 79.050781 3.691406 77.816406 2.679688 75.308594 C 0.441406 69.761719 5.289062 66.351562 19.484375 63.488281 C 26.511719 62.066406 32.292969 60.738281 32.324219 60.523438 C 32.359375 60.316406 32.980469 58.644531 33.710938 56.8125 C 35.367188 52.652344 37.210938 51.351562 43.882812 49.652344 C 47.8125 48.648438 49.164062 47.417969 49.164062 44.84375 C 49.164062 40.507812 51.875 38.65625 59.4375 37.816406 C 69.769531 36.671875 66.792969 35.011719 52.886719 34.164062 C 40.328125 33.398438 39.25 33.054688 36.65625 29.03125 C 33.164062 23.617188 34.554688 19.8125 40.566406 18.324219 C 47.992188 16.488281 48.34375 16.210938 46.804688 13.363281 C 45.757812 11.433594 45.800781 10.355469 46.976562 9.101562 C 50.144531 5.714844 110.347656 1.527344 156.6875 1.480469 C 171.046875 1.464844 188.945312 1.300781 196.46875 1.121094 C 242.566406 -0.00390625 315.121094 3.023438 382.617188 8.875 C 435.117188 13.425781 440.730469 14.1875 440.730469 16.757812 C 440.730469 20.914062 438.777344 21.113281 412.140625 19.628906 C 398.808594 18.886719 387.144531 18.785156 386.214844 19.40625 C 385.289062 20.023438 394.207031 22.140625 406.035156 24.101562 C 417.863281 26.066406 428.582031 28.59375 429.859375 29.714844 C 433.648438 33.050781 431.613281 35.910156 425.503906 35.839844 C 422.367188 35.808594 419.125 36.878906 418.304688 38.222656 C 417.347656 39.789062 417.28125 40.71875 418.125 40.804688 C 418.84375 40.882812 421.007812 41.972656 422.921875 43.230469 L 426.410156 45.515625 L 423.476562 48.402344 C 420.976562 50.867188 420.839844 51.488281 422.558594 52.625 C 425.941406 54.859375 424.8125 58.957031 420.535156 59.96875 C 416.867188 60.835938 417.320312 61.195312 425.460938 63.859375 C 435.511719 67.152344 438.328125 69.925781 435.804688 74.054688 C 434.929688 75.488281 433.574219 76.589844 432.796875 76.511719 C 432.019531 76.429688 430.828125 78.121094 430.152344 80.273438 C 428.976562 84.023438 428.207031 84.132812 411.832031 82.875 C 385.757812 80.878906 390.453125 84.605469 417.636719 87.484375 C 430.226562 88.820312 441.414062 90.496094 442.496094 91.210938 C 444.765625 92.710938 445.09375 97.75 443.097656 100.429688 C 442.101562 101.761719 442.4375 102.664062 444.339844 103.738281 C 447.929688 105.765625 447.617188 110.15625 443.761719 111.867188 C 442.011719 112.644531 434.316406 112.628906 426.667969 111.835938 C 413.542969 110.472656 406.394531 111.671875 410.9375 114.480469 C 411.941406 115.105469 415.285156 116.109375 418.359375 116.710938 C 423.007812 117.625 423.953125 118.417969 423.953125 121.40625 C 423.953125 124.363281 422.996094 125 418.535156 124.988281 C 414.542969 124.980469 412.957031 125.824219 412.523438 128.1875 C 411.84375 131.863281 406.628906 133 395.625 131.863281 C 390.238281 131.308594 387.523438 131.992188 384.835938 134.582031 C 381.554688 137.742188 380.121094 137.84375 368.414062 135.773438 C 351.847656 132.84375 255.65625 125.277344 225.0625 124.496094 C 138.160156 122.285156 89.738281 122.042969 64.621094 123.695312 C 36.226562 125.5625 32.632812 125.636719 30.828125 124.390625 Z M 30.828125 124.390625 " fill-opacity="1" fill-rule="evenodd"/></g></svg>