<svg xmlns="http://www.w3.org/2000/svg" xmlns:xlink="http://www.w3.org/1999/xlink" width="276" zoomAndPan="magnify" viewBox="0 0 206.87999 205.499994" height="274" preserveAspectRatio="xMidYMid meet" version="1.0"><defs><clipPath id="b94738064c"><path d="M 0.191406 0 L 205.941406 0 L 205.941406 204.253906 L 0.191406 204.253906 Z M 0.191406 0 " clip-rule="nonzero"/></clipPath><clipPath id="e192c1d87b"><path d="M 0.191406 36 L 205.941406 36 L 205.941406 43 L 0.191406 43 Z M 0.191406 36 " clip-rule="nonzero"/></clipPath><clipPath id="0db42b8f76"><path d="M 90.921875 88.449219 L 109 88.449219 L 109 116 L 90.921875 116 Z M 90.921875 88.449219 " clip-rule="nonzero"/></clipPath><clipPath id="e2c696f682"><path d="M 97 95 L 114.863281 95 L 114.863281 104 L 97 104 Z M 97 95 " clip-rule="nonzero"/></clipPath></defs><g clip-path="url(#b94738064c)"><path fill="#01c6f7" d="M 13.046875 -0.00390625 L 193.085938 -0.00390625 C 196.613281 -0.00390625 199.816406 1.4375 202.136719 3.757812 C 204.460938 6.082031 205.902344 9.285156 205.902344 12.8125 L 205.902344 191.648438 C 205.902344 195.179688 204.460938 198.382812 202.136719 200.703125 C 199.816406 203.023438 196.613281 204.464844 193.085938 204.464844 L 13.046875 204.464844 C 9.519531 204.464844 6.316406 203.023438 3.992188 200.703125 C 1.671875 198.382812 0.230469 195.179688 0.230469 191.648438 L 0.230469 12.8125 C 0.230469 9.285156 1.671875 6.082031 3.992188 3.757812 C 6.316406 1.4375 9.519531 -0.00390625 13.046875 -0.00390625 Z M 193.085938 6.425781 L 13.046875 6.425781 C 11.292969 6.425781 9.695312 7.144531 8.539062 8.304688 C 7.378906 9.460938 6.660156 11.058594 6.660156 12.8125 L 6.660156 191.648438 C 6.660156 193.402344 7.378906 195 8.539062 196.160156 C 9.695312 197.320312 11.292969 198.039062 13.046875 198.039062 L 193.085938 198.039062 C 194.839844 198.039062 196.433594 197.320312 197.59375 196.160156 C 198.753906 195 199.472656 193.402344 199.472656 191.648438 L 199.472656 12.8125 C 199.472656 11.058594 198.753906 9.460938 197.59375 8.304688 C 196.433594 7.144531 194.839844 6.425781 193.085938 6.425781 Z M 193.085938 6.425781 " fill-opacity="1" fill-rule="nonzero"/></g><g clip-path="url(#e192c1d87b)"><path fill="#01c6f7" d="M 202.6875 42.957031 C 204.460938 42.957031 205.902344 41.519531 205.902344 39.742188 C 205.902344 37.96875 204.460938 36.527344 202.6875 36.527344 L 3.445312 36.527344 C 1.671875 36.527344 0.230469 37.96875 0.230469 39.742188 C 0.230469 41.519531 1.671875 42.957031 3.445312 42.957031 Z M 202.6875 42.957031 " fill-opacity="1" fill-rule="nonzero"/></g><path fill="#01c6f7" d="M 24.375 10.761719 C 30.285156 10.761719 35.089844 15.570312 35.089844 21.476562 C 35.089844 24.433594 33.890625 27.113281 31.953125 29.054688 C 30.015625 30.992188 27.335938 32.191406 24.375 32.191406 C 18.464844 32.191406 13.660156 27.386719 13.660156 21.476562 C 13.660156 18.519531 14.859375 15.839844 16.800781 13.898438 C 18.738281 11.960938 21.417969 10.761719 24.375 10.761719 Z M 24.375 17.1875 C 23.191406 17.1875 22.117188 17.667969 21.34375 18.445312 C 20.570312 19.21875 20.089844 20.292969 20.089844 21.476562 C 20.089844 23.855469 22.007812 25.765625 24.375 25.765625 C 25.5625 25.765625 26.632812 25.285156 27.410156 24.507812 C 28.183594 23.734375 28.664062 22.660156 28.664062 21.476562 C 28.664062 19.105469 26.75 17.1875 24.375 17.1875 Z M 24.375 17.1875 " fill-opacity="1" fill-rule="nonzero"/><path fill="#01c6f7" d="M 57.382812 10.761719 C 60.339844 10.761719 63.019531 11.960938 64.960938 13.898438 C 65.03125 13.96875 65.097656 14.042969 65.15625 14.117188 C 66.980469 16.039062 68.097656 18.628906 68.097656 21.476562 C 68.097656 24.433594 66.898438 27.113281 64.960938 29.054688 C 63.019531 30.992188 60.339844 32.191406 57.382812 32.191406 C 54.425781 32.191406 51.746094 30.992188 49.804688 29.054688 C 47.867188 27.113281 46.667969 24.433594 46.667969 21.476562 C 46.667969 18.519531 47.867188 15.839844 49.804688 13.898438 C 51.746094 11.960938 54.425781 10.761719 57.382812 10.761719 Z M 60.414062 18.445312 C 59.640625 17.667969 58.566406 17.1875 57.382812 17.1875 C 56.199219 17.1875 55.125 17.667969 54.351562 18.445312 C 53.574219 19.21875 53.09375 20.292969 53.09375 21.476562 C 53.09375 22.660156 53.574219 23.734375 54.351562 24.507812 C 55.125 25.285156 56.199219 25.765625 57.382812 25.765625 C 58.566406 25.765625 59.640625 25.285156 60.414062 24.507812 C 61.191406 23.734375 61.671875 22.660156 61.671875 21.476562 C 61.671875 20.351562 61.242188 19.332031 60.546875 18.566406 C 60.5 18.527344 60.457031 18.488281 60.414062 18.445312 Z M 60.414062 18.445312 " fill-opacity="1" fill-rule="nonzero"/><path fill="#01c6f7" d="M 90.390625 10.761719 C 96.300781 10.761719 101.105469 15.570312 101.105469 21.476562 C 101.105469 24.433594 99.90625 27.113281 97.964844 29.054688 C 96.027344 30.992188 93.347656 32.191406 90.390625 32.191406 C 87.433594 32.191406 84.753906 30.992188 82.8125 29.054688 C 80.875 27.113281 79.675781 24.433594 79.675781 21.476562 C 79.675781 15.5625 84.480469 10.761719 90.390625 10.761719 Z M 90.390625 17.1875 C 88.011719 17.1875 86.101562 19.109375 86.101562 21.476562 C 86.101562 22.660156 86.582031 23.734375 87.355469 24.507812 C 88.132812 25.285156 89.207031 25.765625 90.390625 25.765625 C 91.574219 25.765625 92.648438 25.285156 93.421875 24.507812 C 94.195312 23.734375 94.675781 22.660156 94.675781 21.476562 C 94.675781 19.105469 92.765625 17.1875 90.390625 17.1875 Z M 90.390625 17.1875 " fill-opacity="1" fill-rule="nonzero"/><path fill="#01c6f7" d="M 176.660156 24.691406 C 178.433594 24.691406 179.871094 23.25 179.871094 21.476562 C 179.871094 19.703125 178.433594 18.261719 176.660156 18.261719 L 116.945312 18.261719 C 115.171875 18.261719 113.734375 19.703125 113.734375 21.476562 C 113.734375 23.25 115.171875 24.691406 116.945312 24.691406 Z M 176.660156 24.691406 " fill-opacity="1" fill-rule="nonzero"/><path fill="#01c6f7" d="M 113.453125 167.28125 L 113.453125 136.484375 L 92.675781 136.484375 L 92.675781 167.28125 C 92.675781 169.054688 91.238281 170.492188 89.464844 170.492188 L 56.816406 170.492188 C 55.042969 170.492188 53.601562 169.054688 53.601562 167.28125 L 53.601562 118.464844 L 46.320312 118.464844 C 44.546875 118.464844 43.109375 117.023438 43.109375 115.25 C 43.109375 114.195312 43.617188 113.257812 44.402344 112.671875 L 100.929688 61.957031 L 100.917969 61.945312 C 102.226562 60.773438 104.230469 60.867188 105.417969 62.148438 L 161.945312 112.863281 L 161.957031 112.859375 C 163.277344 114.042969 163.386719 116.074219 162.203125 117.394531 C 161.566406 118.101562 160.691406 118.460938 159.808594 118.464844 L 152.53125 118.464844 L 152.53125 167.28125 C 152.53125 169.054688 151.089844 170.492188 149.316406 170.492188 L 116.667969 170.492188 C 114.894531 170.492188 113.453125 169.054688 113.453125 167.28125 Z M 119.882812 133.269531 L 119.882812 164.066406 L 146.101562 164.066406 L 146.101562 115.25 C 146.101562 113.476562 147.539062 112.035156 149.316406 112.035156 L 151.433594 112.035156 L 103.066406 68.636719 L 54.695312 112.035156 L 56.816406 112.035156 C 58.589844 112.035156 60.03125 113.476562 60.03125 115.25 L 60.03125 164.066406 L 86.25 164.066406 L 86.25 133.269531 C 86.25 131.496094 87.6875 130.054688 89.460938 130.054688 L 116.667969 130.054688 C 118.445312 130.054688 119.882812 131.496094 119.882812 133.269531 Z M 119.882812 133.269531 " fill-opacity="1" fill-rule="nonzero"/><g clip-path="url(#0db42b8f76)"><path fill="#01c6f7" d="M 90.9375 100.515625 C 91.386719 100.351562 91.839844 100.171875 92.289062 99.859375 C 92.898438 97.273438 95.714844 99.148438 96.476562 100.433594 C 95.925781 98.507812 95.6875 94.851562 98.160156 94.03125 C 101.546875 92.910156 102.980469 91.925781 103.988281 88.449219 C 104.417969 92.261719 101.386719 93.609375 98.53125 95.222656 C 95.855469 96.726562 97.46875 100.621094 97.175781 102.8125 C 96.464844 101.59375 93.753906 97.128906 92.371094 100.324219 C 93.875 100.722656 94.339844 100.78125 94.589844 102.375 C 94.949219 104.664062 94.601562 106.746094 97.132812 107.738281 C 98.972656 108.460938 100.429688 109.105469 101.117188 110.160156 C 101.992188 111.511719 101.574219 112.976562 101.390625 114.375 C 101.28125 115.183594 102.28125 114.5625 103.480469 113.675781 C 105.34375 114.734375 105.816406 114.046875 105.5625 112.476562 C 108.164062 111.800781 108.460938 111.390625 107.792969 111.339844 C 103.902344 111.042969 103.347656 110.398438 101.9375 105.238281 C 102.417969 106.382812 102.917969 107.308594 103.46875 108.4375 C 104.535156 110.605469 106.078125 110.660156 108.339844 110.914062 C 109.300781 111.019531 109.492188 112.109375 106.082031 112.953125 C 106.679688 114.34375 105.4375 116.003906 103.785156 114.101562 C 102.035156 115.511719 100.871094 115.722656 100.953125 114.71875 C 101.054688 113.464844 101.4375 112.242188 100.542969 110.984375 C 100.09375 110.355469 99.292969 109.796875 97.914062 109.300781 C 92.625 107.398438 94.621094 103.609375 93.40625 101.601562 C 93.035156 100.988281 92.160156 100.738281 90.9375 100.515625 " fill-opacity="1" fill-rule="evenodd"/></g><path fill="#01c6f7" d="M 100.625 104.621094 C 102.355469 105.996094 105.171875 106.128906 106.8125 104.535156 C 106.328125 104.507812 105.957031 104.40625 105.695312 104.230469 C 105.710938 104.367188 105.84375 104.507812 106.085938 104.648438 C 104.464844 105.234375 102.621094 105.15625 100.625 104.621094 " fill-opacity="1" fill-rule="evenodd"/><path fill="#01c6f7" d="M 103.371094 103.304688 C 105.695312 104.308594 108.863281 104.039062 110.089844 101.511719 C 109.71875 101.632812 109.34375 101.644531 108.96875 101.539062 C 109.148438 101.664062 109.335938 101.765625 109.585938 101.738281 C 108.128906 103.15625 105.949219 103.527344 103.371094 103.304688 " fill-opacity="1" fill-rule="evenodd"/><path fill="#01c6f7" d="M 105.300781 101.316406 C 108.472656 101.53125 111.628906 101.082031 112.945312 97.789062 C 112.621094 97.84375 112.292969 97.898438 111.96875 97.957031 C 112.070312 98.003906 112.171875 98.050781 112.273438 98.097656 C 111.042969 99.96875 108.476562 100.863281 105.300781 101.316406 " fill-opacity="1" fill-rule="evenodd"/><path fill="#01c6f7" d="M 98.972656 99.550781 C 99.964844 100.5 101.421875 100.269531 102.332031 99.355469 C 102.164062 99.207031 101.746094 99.140625 101.578125 98.992188 C 101.632812 99.132812 101.941406 99.1875 101.996094 99.328125 C 101.242188 99.824219 100.175781 99.804688 98.972656 99.550781 " fill-opacity="1" fill-rule="evenodd"/><path fill="#01c6f7" d="M 98.609375 97.84375 C 101.035156 99.574219 103.65625 97.921875 105.246094 95.910156 C 104.855469 95.925781 104.460938 95.886719 104.070312 95.828125 C 104.246094 95.949219 104.433594 96.050781 104.6875 96.023438 C 102.996094 97.675781 100.96875 98.28125 98.609375 97.84375 " fill-opacity="1" fill-rule="evenodd"/><path fill="#01c6f7" d="M 100.007812 96.277344 C 103.792969 96.164062 105.445312 94.675781 105.191406 90.816406 C 104.871094 91.207031 104.378906 91.917969 103.984375 92.160156 C 104.265625 92.132812 104.675781 91.691406 104.882812 91.515625 C 104.902344 94.167969 102.757812 95.417969 100.007812 96.277344 " fill-opacity="1" fill-rule="evenodd"/><g clip-path="url(#e2c696f682)"><path fill="#01c6f7" d="M 97.40625 103.109375 C 98.519531 104.1875 100.078125 103.828125 101.171875 103.261719 C 103.617188 101.992188 103.785156 98.570312 107.066406 98.375 C 110.582031 98.167969 112.542969 97.746094 115.1875 95.183594 C 112.328125 97.011719 110.195312 97.328125 106.898438 97.3125 C 103.367188 97.296875 102.953125 100.273438 100.890625 102.1875 C 100.117188 102.90625 99.070312 103.328125 97.40625 103.109375 " fill-opacity="1" fill-rule="evenodd"/></g><path fill="#01c6f7" d="M 93.109375 99.644531 C 93.265625 99.644531 93.390625 99.769531 93.390625 99.925781 C 93.390625 100.078125 93.265625 100.207031 93.109375 100.207031 C 92.957031 100.207031 92.832031 100.078125 92.832031 99.925781 C 92.832031 99.769531 92.957031 99.644531 93.109375 99.644531 " fill-opacity="1" fill-rule="evenodd"/></svg>