<svg xmlns="http://www.w3.org/2000/svg" xmlns:xlink="http://www.w3.org/1999/xlink" width="584" zoomAndPan="magnify" viewBox="0 0 438 240.749995" height="321" preserveAspectRatio="xMidYMid meet" version="1.0"><defs><clipPath id="aabc842142"><path d="M 218.691406 18 L 414 18 L 414 162.550781 L 218.691406 162.550781 Z M 218.691406 18 " clip-rule="nonzero"/></clipPath><clipPath id="28be2abf8c"><path d="M 22.175781 90.027344 L 217.675781 90.027344 L 217.675781 234.582031 L 22.175781 234.582031 Z M 22.175781 90.027344 " clip-rule="nonzero"/></clipPath><clipPath id="352bcce610"><path d="M 0.226562 0 L 437.441406 0 L 437.441406 239.339844 L 0.226562 239.339844 Z M 0.226562 0 " clip-rule="nonzero"/></clipPath></defs><path fill="#01c6f7" d="M 342.632812 83.222656 C 342.640625 83.222656 342.644531 83.222656 342.652344 83.222656 C 343.191406 83.214844 343.625 82.765625 343.617188 82.226562 C 343.609375 81.683594 343.160156 81.246094 342.625 81.257812 C 342.621094 81.257812 342.617188 81.257812 342.617188 81.257812 C 341.949219 81.257812 327.457031 80.835938 319.65625 80.605469 C 314.511719 80.457031 313.714844 80.433594 313.660156 80.433594 C 313.117188 80.433594 312.675781 80.875 312.679688 81.417969 C 312.679688 81.960938 313.117188 82.398438 313.660156 82.398438 C 313.660156 82.398438 313.660156 82.398438 313.664062 82.398438 C 313.773438 82.398438 316.34375 82.476562 319.597656 82.570312 C 330.898438 82.898438 341.972656 83.222656 342.632812 83.222656 " fill-opacity="1" fill-rule="nonzero"/><path fill="#01c6f7" d="M 342.964844 95.875 C 343.484375 95.875 343.921875 95.464844 343.945312 94.9375 C 343.96875 94.394531 343.550781 93.9375 343.007812 93.910156 C 340.019531 93.773438 313.4375 92.660156 312.699219 92.660156 C 312.695312 92.660156 312.691406 92.660156 312.691406 92.660156 C 312.148438 92.675781 311.71875 93.128906 311.734375 93.667969 C 311.75 94.210938 312.214844 94.636719 312.746094 94.625 C 313.398438 94.628906 338.515625 95.671875 342.917969 95.875 C 342.933594 95.875 342.949219 95.875 342.964844 95.875 " fill-opacity="1" fill-rule="nonzero"/><path fill="#01c6f7" d="M 342.964844 107.875 C 343.484375 107.875 343.914062 107.46875 343.945312 106.945312 C 343.972656 106.402344 343.558594 105.941406 343.015625 105.910156 C 336.433594 105.554688 328.960938 105.351562 321.734375 105.15625 C 317.175781 105.03125 312.867188 104.914062 308.867188 104.761719 C 308.335938 104.742188 307.871094 105.164062 307.847656 105.707031 C 307.828125 106.246094 308.25 106.703125 308.792969 106.726562 C 312.804688 106.875 317.117188 106.992188 321.679688 107.117188 C 328.894531 107.316406 336.351562 107.519531 342.910156 107.875 C 342.929688 107.875 342.945312 107.875 342.964844 107.875 " fill-opacity="1" fill-rule="nonzero"/><path fill="#01c6f7" d="M 342.144531 131.179688 C 342.675781 131.179688 343.109375 130.757812 343.125 130.226562 C 343.144531 129.6875 342.714844 129.234375 342.175781 129.214844 C 342.054688 129.214844 329.972656 128.855469 323.699219 128.855469 C 323.15625 128.855469 322.71875 129.292969 322.71875 129.835938 C 322.71875 130.378906 323.15625 130.820312 323.699219 130.820312 C 329.945312 130.820312 341.996094 131.175781 342.117188 131.179688 C 342.125 131.179688 342.136719 131.179688 342.144531 131.179688 " fill-opacity="1" fill-rule="nonzero"/><path fill="#01c6f7" d="M 313.660156 130.691406 C 314.191406 130.691406 314.628906 130.265625 314.640625 129.734375 C 314.65625 129.191406 314.226562 128.742188 313.683594 128.726562 C 313.460938 128.722656 291.480469 128.21875 282.421875 127.960938 C 282.410156 127.960938 282.402344 127.960938 282.394531 127.960938 C 281.863281 127.960938 281.425781 128.382812 281.410156 128.914062 C 281.394531 129.457031 281.824219 129.910156 282.367188 129.925781 C 291.429688 130.183594 313.417969 130.6875 313.636719 130.691406 C 313.644531 130.691406 313.652344 130.691406 313.660156 130.691406 " fill-opacity="1" fill-rule="nonzero"/><path fill="#01c6f7" d="M 342.636719 119.308594 C 343.148438 119.308594 343.582031 118.914062 343.617188 118.394531 C 343.652344 117.855469 343.246094 117.382812 342.703125 117.347656 C 342.636719 117.34375 282.875 116.851562 282.378906 116.851562 L 282.066406 116.851562 C 281.523438 116.851562 281.082031 117.292969 281.082031 117.835938 C 281.082031 118.375 281.523438 118.816406 282.066406 118.816406 L 282.378906 118.816406 C 283.265625 118.820312 341.996094 119.304688 342.617188 119.308594 C 342.625 119.308594 342.628906 119.308594 342.636719 119.308594 " fill-opacity="1" fill-rule="nonzero"/><path fill="#01c6f7" d="M 387.394531 51.835938 C 389.320312 51.835938 390.886719 53.296875 390.886719 55.09375 C 390.886719 56.832031 389.542969 58.691406 387.539062 58.691406 C 385.628906 58.691406 383.683594 56.875 383.683594 55.09375 C 383.683594 53.359375 385.417969 51.835938 387.394531 51.835938 Z M 387.539062 60.65625 C 390.417969 60.65625 392.851562 58.109375 392.851562 55.09375 C 392.851562 52.214844 390.402344 49.875 387.394531 49.875 C 384.320312 49.875 381.71875 52.261719 381.71875 55.09375 C 381.71875 57.953125 384.550781 60.65625 387.539062 60.65625 " fill-opacity="1" fill-rule="nonzero"/><path fill="#01c6f7" d="M 371.351562 51.835938 C 371.9375 51.835938 372.535156 51.964844 373.09375 52.238281 C 374.820312 53.085938 375.582031 55.089844 374.789062 56.699219 C 374.023438 58.261719 371.992188 59.335938 370.199219 58.453125 C 368.484375 57.609375 367.539062 55.121094 368.328125 53.523438 C 368.851562 52.453125 370.066406 51.835938 371.351562 51.835938 Z M 371.53125 60.722656 C 373.558594 60.722656 375.582031 59.542969 376.550781 57.566406 C 377.820312 54.984375 376.660156 51.800781 373.960938 50.472656 C 371.199219 49.117188 367.8125 50.117188 366.5625 52.65625 C 365.300781 55.222656 366.648438 58.898438 369.332031 60.214844 C 370.03125 60.558594 370.78125 60.722656 371.53125 60.722656 " fill-opacity="1" fill-rule="nonzero"/><path fill="#01c6f7" d="M 355.414062 51.847656 C 356.308594 51.847656 357.25 52.226562 358.011719 52.898438 C 358.789062 53.582031 359.253906 54.460938 359.285156 55.308594 C 359.34375 57.039062 357.667969 58.625 355.691406 58.695312 C 354.746094 58.726562 353.855469 58.414062 353.171875 57.8125 C 352.5 57.222656 352.117188 56.425781 352.085938 55.566406 C 352.023438 53.828125 353.300781 51.921875 355.300781 51.847656 C 355.339844 51.847656 355.375 51.847656 355.414062 51.847656 Z M 355.554688 60.660156 C 355.625 60.660156 355.691406 60.660156 355.761719 60.65625 C 358.835938 60.546875 361.347656 58.066406 361.246094 55.238281 C 361.195312 53.855469 360.492188 52.464844 359.308594 51.421875 C 358.140625 50.394531 356.648438 49.832031 355.230469 49.886719 C 352.355469 49.988281 350.015625 52.621094 350.121094 55.636719 C 350.171875 57.039062 350.792969 58.335938 351.871094 59.285156 C 352.882812 60.175781 354.183594 60.660156 355.554688 60.660156 " fill-opacity="1" fill-rule="nonzero"/><path fill="#01c6f7" d="M 338.800781 37.714844 C 339.0625 37.714844 339.320312 37.609375 339.515625 37.40625 C 342.207031 34.554688 345.597656 32.128906 349.589844 30.195312 C 350.078125 29.960938 350.28125 29.375 350.046875 28.886719 C 349.808594 28.394531 349.222656 28.191406 348.734375 28.429688 C 344.527344 30.464844 340.941406 33.03125 338.085938 36.054688 C 337.714844 36.449219 337.730469 37.070312 338.128906 37.445312 C 338.316406 37.625 338.558594 37.714844 338.800781 37.714844 " fill-opacity="1" fill-rule="nonzero"/><path fill="#01c6f7" d="M 401.34375 73.238281 C 401.625 73.238281 401.902344 73.117188 402.09375 72.890625 C 406.296875 67.941406 408.339844 62.117188 408.339844 55.078125 C 408.339844 54.535156 407.898438 54.097656 407.359375 54.097656 C 406.816406 54.097656 406.375 54.535156 406.375 55.078125 C 406.375 61.628906 404.484375 67.039062 400.597656 71.617188 C 400.246094 72.03125 400.296875 72.652344 400.710938 73.003906 C 400.894531 73.160156 401.121094 73.238281 401.34375 73.238281 " fill-opacity="1" fill-rule="nonzero"/><path fill="#01c6f7" d="M 403.507812 40.898438 C 403.679688 40.898438 403.851562 40.851562 404.007812 40.761719 C 404.476562 40.484375 404.628906 39.878906 404.351562 39.414062 C 402.554688 36.390625 400.128906 33.707031 397.140625 31.4375 C 396.707031 31.109375 396.09375 31.195312 395.761719 31.628906 C 395.433594 32.058594 395.519531 32.675781 395.953125 33.003906 C 398.738281 35.117188 400.996094 37.613281 402.664062 40.417969 C 402.847656 40.726562 403.171875 40.898438 403.507812 40.898438 " fill-opacity="1" fill-rule="nonzero"/><path fill="#01c6f7" d="M 286.976562 145.097656 C 287.402344 145.097656 287.796875 144.816406 287.921875 144.386719 C 288.070312 143.863281 287.769531 143.320312 287.25 143.167969 C 283.117188 141.980469 280.503906 140.101562 279.015625 137.265625 C 278.761719 136.785156 278.167969 136.601562 277.6875 136.851562 C 277.207031 137.105469 277.023438 137.699219 277.273438 138.179688 C 279.003906 141.476562 282.089844 143.726562 286.703125 145.058594 C 286.796875 145.082031 286.886719 145.097656 286.976562 145.097656 " fill-opacity="1" fill-rule="nonzero"/><path fill="#01c6f7" d="M 338.730469 144.289062 C 338.757812 144.289062 338.78125 144.285156 338.804688 144.285156 C 346.109375 143.742188 350.390625 140.746094 352.289062 134.847656 C 352.453125 134.332031 352.167969 133.777344 351.652344 133.613281 C 351.136719 133.445312 350.582031 133.730469 350.417969 134.246094 C 348.753906 139.421875 345.238281 141.839844 338.660156 142.324219 C 338.121094 142.367188 337.714844 142.835938 337.753906 143.378906 C 337.792969 143.894531 338.222656 144.289062 338.730469 144.289062 " fill-opacity="1" fill-rule="nonzero"/><path fill="#01c6f7" d="M 352.152344 131.949219 C 352.636719 131.949219 353.054688 131.59375 353.125 131.105469 C 353.351562 129.515625 353.464844 127.726562 353.464844 125.789062 C 353.464844 125.246094 353.027344 124.804688 352.484375 124.804688 C 351.941406 124.804688 351.5 125.246094 351.5 125.789062 C 351.5 127.632812 351.394531 129.328125 351.179688 130.828125 C 351.105469 131.363281 351.476562 131.863281 352.015625 131.9375 C 352.0625 131.945312 352.109375 131.949219 352.152344 131.949219 " fill-opacity="1" fill-rule="nonzero"/><path fill="#01c6f7" d="M 352.949219 81.085938 C 353.464844 81.085938 353.898438 80.683594 353.929688 80.164062 C 354.410156 72.167969 351.1875 66.949219 344.34375 64.65625 C 343.828125 64.484375 343.273438 64.761719 343.101562 65.277344 C 342.929688 65.789062 343.207031 66.347656 343.71875 66.519531 C 349.699219 68.523438 352.394531 72.949219 351.96875 80.046875 C 351.9375 80.585938 352.347656 81.050781 352.890625 81.085938 C 352.910156 81.085938 352.929688 81.085938 352.949219 81.085938 " fill-opacity="1" fill-rule="nonzero"/><path fill="#01c6f7" d="M 338.21875 65.207031 C 338.671875 65.207031 339.078125 64.890625 339.175781 64.429688 C 339.289062 63.902344 338.953125 63.378906 338.421875 63.265625 C 336.453125 62.84375 334.515625 62.839844 334.433594 62.839844 C 333.890625 62.839844 333.453125 63.277344 333.453125 63.820312 C 333.453125 64.363281 333.890625 64.804688 334.433594 64.804688 C 334.453125 64.804688 336.25 64.808594 338.011719 65.1875 C 338.078125 65.203125 338.148438 65.207031 338.21875 65.207031 " fill-opacity="1" fill-rule="nonzero"/><g clip-path="url(#aabc842142)"><path fill="#01c6f7" d="M 229.875 107.617188 C 235.640625 113.382812 240.578125 113.261719 264.332031 112.691406 C 269.066406 112.574219 274.433594 112.445312 280.726562 112.339844 C 293.96875 112.339844 301.488281 110.851562 305.867188 107.363281 C 310.195312 103.914062 311.960938 98.257812 311.960938 87.835938 C 311.960938 77.761719 312.128906 69.253906 312.265625 62.414062 C 312.675781 41.578125 312.847656 32.953125 307.597656 27.703125 C 302.472656 22.578125 291.394531 20.488281 269.355469 20.488281 C 243.605469 20.488281 230.246094 22.859375 224.683594 28.421875 C 221.382812 31.722656 220.753906 35.960938 220.753906 42.628906 C 220.753906 81.472656 221.617188 99.359375 229.875 107.617188 Z M 276.703125 144.890625 C 279.523438 147.710938 283.253906 149.425781 288.445312 150.28125 C 288.796875 150.339844 289.085938 150.582031 289.207031 150.917969 C 289.230469 150.980469 289.753906 152.472656 289.5 154.546875 C 289.320312 156.023438 288.714844 158.042969 286.957031 160.058594 C 296.734375 159.691406 302.59375 150.574219 302.65625 150.476562 C 302.832031 150.195312 303.140625 150.019531 303.472656 150.015625 L 327.554688 149.617188 C 340.796875 149.617188 348.316406 148.128906 352.695312 144.636719 C 357.023438 141.191406 358.789062 135.535156 358.789062 125.113281 C 358.789062 115.039062 358.960938 106.527344 359.09375 99.691406 C 359.507812 78.851562 359.679688 70.226562 354.429688 64.980469 C 349.300781 59.851562 338.222656 57.761719 316.183594 57.761719 C 315.554688 57.761719 314.933594 57.765625 314.320312 57.765625 C 314.292969 59.261719 314.261719 60.816406 314.230469 62.453125 C 314.09375 69.285156 313.925781 77.78125 313.925781 87.835938 C 313.925781 108.617188 306.789062 114.304688 280.742188 114.304688 C 276.117188 114.382812 271.988281 114.472656 268.242188 114.5625 C 269.238281 131.269531 271.632812 139.820312 276.703125 144.890625 Z M 381.113281 89.113281 C 381.425781 89.039062 381.753906 89.121094 381.996094 89.335938 C 384.71875 91.785156 388.984375 95.074219 390.984375 96.59375 C 391.460938 94.53125 391.921875 90.570312 392.269531 85.460938 C 392.292969 85.125 392.484375 84.828125 392.777344 84.667969 C 405.671875 77.605469 411.941406 67.925781 411.941406 55.078125 C 411.941406 30.820312 391.378906 19.957031 371.003906 19.957031 C 356.808594 19.957031 343.523438 25.050781 335.46875 33.582031 C 329.683594 39.710938 326.808594 47.449219 327.125 56.003906 C 342.800781 56.664062 351.1875 58.960938 355.816406 63.589844 C 360.652344 68.425781 361.363281 75.34375 361.226562 89.734375 C 367.757812 90.855469 374.613281 90.644531 381.113281 89.113281 Z M 223.292969 27.03125 C 229.339844 20.988281 242.683594 18.523438 269.355469 18.523438 C 292.269531 18.523438 303.378906 20.707031 308.988281 26.316406 C 314.183594 31.511719 314.617188 39.109375 314.351562 55.800781 C 314.957031 55.800781 315.566406 55.796875 316.183594 55.796875 C 319.40625 55.796875 322.382812 55.84375 325.15625 55.933594 C 324.855469 46.894531 327.917969 38.71875 334.039062 32.234375 C 342.460938 23.316406 356.277344 17.992188 371.003906 17.992188 C 382.375 17.992188 392.851562 21.195312 400.503906 27.007812 C 409.273438 33.660156 413.90625 43.371094 413.90625 55.078125 C 413.90625 68.550781 407.457031 78.710938 394.195312 86.128906 C 393.855469 90.894531 393.277344 96.726562 392.398438 98.632812 C 392.273438 98.902344 392.035156 99.097656 391.75 99.171875 C 391.667969 99.191406 391.589844 99.203125 391.507812 99.203125 C 391.296875 99.203125 391.089844 99.136719 390.921875 99.007812 C 390.664062 98.816406 384.808594 94.4375 381.066406 91.140625 C 374.5625 92.601562 367.730469 92.800781 361.203125 91.722656 C 361.167969 94.183594 361.117188 96.839844 361.058594 99.730469 C 360.921875 106.558594 360.753906 115.058594 360.753906 125.113281 C 360.753906 145.890625 353.617188 151.582031 327.574219 151.582031 L 304.019531 151.972656 C 302.601562 154.011719 296.394531 162.039062 286.40625 162.039062 C 285.785156 162.039062 285.148438 162.007812 284.496094 161.941406 C 284.097656 161.902344 283.765625 161.625 283.652344 161.242188 C 283.539062 160.863281 283.667969 160.449219 283.976562 160.199219 C 287.96875 156.992188 287.75 153.433594 287.492188 152.109375 C 282.203125 151.148438 278.320312 149.289062 275.3125 146.28125 C 269.859375 140.824219 267.300781 131.898438 266.277344 114.605469 C 265.632812 114.625 265 114.636719 264.378906 114.652344 C 258.546875 114.792969 253.804688 114.90625 249.867188 114.90625 C 237.703125 114.90625 233.289062 113.8125 228.484375 109.007812 C 219.707031 100.230469 218.789062 82.039062 218.789062 42.628906 C 218.789062 36.78125 219.136719 31.191406 223.292969 27.03125 " fill-opacity="1" fill-rule="nonzero"/></g><path fill="#01c6f7" d="M 244.519531 77.324219 C 253.949219 78.589844 262.855469 79.792969 269.558594 81.824219 C 273.945312 83.15625 279.601562 85.417969 280.898438 90.046875 C 290.539062 70.65625 295.898438 54.308594 296.09375 53.703125 C 297.074219 50.234375 297.539062 47.132812 293.304688 44.351562 C 288.527344 41.214844 271.414062 37.546875 258.960938 36.28125 C 255.304688 42.394531 240.125 70.078125 236.746094 76.25 C 239.339844 76.621094 241.96875 76.980469 244.519531 77.324219 Z M 239.953125 86.449219 C 239.753906 88.019531 239.160156 89.371094 238.25 90.414062 C 245.457031 92 255.464844 93.957031 264.167969 95.472656 C 264.882812 93.019531 265.847656 90.605469 266.730469 88.921875 C 266.222656 88.878906 265.714844 88.855469 265.203125 88.855469 C 264.664062 88.855469 264.21875 88.414062 264.21875 87.871094 C 264.21875 87.328125 264.664062 86.890625 265.203125 86.890625 C 268.363281 86.890625 271.46875 87.664062 274.472656 89.195312 C 274.472656 89.195312 274.472656 89.195312 274.476562 89.195312 C 274.476562 89.195312 274.476562 89.199219 274.480469 89.199219 C 275.214844 89.574219 275.945312 89.992188 276.664062 90.457031 C 277.121094 90.75 277.25 91.359375 276.957031 91.816406 C 276.769531 92.105469 276.453125 92.265625 276.132812 92.265625 C 275.949219 92.265625 275.765625 92.214844 275.601562 92.109375 C 275.261719 91.890625 274.917969 91.683594 274.578125 91.488281 C 273.824219 93.324219 273.191406 95.015625 272.679688 96.71875 C 275.140625 96.8125 276.921875 96.378906 277.976562 95.417969 C 278.136719 95.273438 278.277344 95.113281 278.402344 94.945312 C 278.582031 94.597656 278.761719 94.25 278.945312 93.902344 C 279.117188 93.378906 279.210938 92.773438 279.210938 92.078125 C 279.210938 83.972656 262.234375 81.6875 244.253906 79.269531 C 242.097656 78.980469 239.882812 78.679688 237.679688 78.367188 C 239.464844 80.851562 240.304688 83.734375 239.953125 86.449219 Z M 265.164062 102.664062 C 265.730469 102.3125 266.195312 102.070312 266.976562 101.683594 C 267.355469 101.488281 267.820312 101.566406 268.117188 101.871094 C 268.382812 102.144531 268.683594 102.460938 268.996094 102.796875 C 269.117188 102.921875 269.238281 103.054688 269.363281 103.183594 C 269.882812 98.519531 271.027344 94.9375 272.828125 90.574219 C 271.5 89.957031 270.164062 89.507812 268.804688 89.226562 C 267.234375 91.898438 265.074219 97.929688 265.074219 101.554688 C 265.074219 101.949219 265.105469 102.324219 265.164062 102.664062 Z M 234.230469 76.976562 C 234.230469 76.945312 234.230469 76.921875 234.234375 76.890625 L 234.234375 76.878906 C 234.234375 76.875 234.234375 76.871094 234.234375 76.867188 C 234.238281 76.835938 234.253906 76.804688 234.257812 76.773438 C 234.265625 76.75 234.265625 76.730469 234.273438 76.710938 C 234.277344 76.707031 234.277344 76.703125 234.277344 76.699219 C 234.28125 76.691406 234.28125 76.6875 234.285156 76.683594 C 234.296875 76.648438 234.3125 76.621094 234.328125 76.59375 C 234.339844 76.5625 234.351562 76.535156 234.367188 76.503906 L 234.382812 76.488281 C 235.980469 73.378906 254.996094 38.960938 257.605469 34.722656 C 257.621094 34.703125 257.636719 34.6875 257.652344 34.667969 C 257.667969 34.644531 257.6875 34.621094 257.703125 34.597656 C 257.730469 34.566406 257.761719 34.539062 257.789062 34.511719 C 257.808594 34.5 257.820312 34.484375 257.835938 34.472656 C 257.871094 34.441406 257.910156 34.421875 257.949219 34.398438 C 257.964844 34.386719 257.976562 34.378906 257.992188 34.371094 C 258.035156 34.351562 258.078125 34.332031 258.121094 34.316406 C 258.136719 34.3125 258.152344 34.304688 258.167969 34.300781 C 258.210938 34.289062 258.257812 34.28125 258.304688 34.273438 C 258.324219 34.269531 258.339844 34.265625 258.359375 34.265625 C 258.402344 34.257812 258.441406 34.261719 258.484375 34.261719 C 258.503906 34.261719 258.519531 34.257812 258.539062 34.261719 C 271.289062 35.496094 289.144531 39.269531 294.386719 42.710938 C 299.726562 46.21875 299.039062 50.511719 297.980469 54.257812 C 297.976562 54.265625 297.972656 54.28125 297.96875 54.289062 C 297.90625 54.484375 291.792969 73.289062 280.746094 94.699219 C 280.429688 95.550781 279.953125 96.28125 279.300781 96.871094 C 277.964844 98.085938 275.949219 98.691406 273.285156 98.691406 C 272.921875 98.691406 272.539062 98.679688 272.148438 98.65625 C 271.644531 100.734375 271.304688 102.902344 271.140625 105.429688 C 271.113281 105.800781 270.875 106.128906 270.53125 106.273438 C 270.410156 106.320312 270.285156 106.34375 270.15625 106.34375 C 269.921875 106.34375 269.6875 106.261719 269.503906 106.097656 C 268.914062 105.570312 268.226562 104.84375 267.566406 104.140625 C 267.445312 104.015625 267.328125 103.886719 267.210938 103.765625 C 266.515625 104.125 266.082031 104.390625 265.164062 105.015625 C 264.929688 105.175781 264.628906 105.226562 264.351562 105.148438 C 264.078125 105.074219 263.84375 104.882812 263.722656 104.621094 C 263.316406 103.75 263.109375 102.722656 263.109375 101.554688 C 263.109375 100.335938 263.324219 98.882812 263.671875 97.378906 C 254.152344 95.71875 243.101562 93.539062 235.847656 91.890625 C 235.839844 91.890625 235.835938 91.886719 235.828125 91.882812 C 235.808594 91.878906 235.789062 91.871094 235.769531 91.863281 C 235.714844 91.847656 235.65625 91.824219 235.605469 91.792969 C 235.585938 91.785156 235.566406 91.773438 235.546875 91.761719 C 235.492188 91.726562 235.4375 91.6875 235.390625 91.644531 C 235.382812 91.632812 235.371094 91.625 235.359375 91.613281 C 235.304688 91.554688 235.257812 91.492188 235.21875 91.421875 C 235.214844 91.417969 235.207031 91.410156 235.207031 91.40625 C 235.195312 91.386719 235.191406 91.371094 235.183594 91.351562 C 235.167969 91.320312 235.152344 91.285156 235.140625 91.25 C 235.128906 91.226562 235.125 91.195312 235.117188 91.164062 C 235.105469 91.132812 235.101562 91.101562 235.09375 91.066406 C 235.089844 91.035156 235.089844 91.003906 235.085938 90.972656 C 235.085938 90.941406 235.085938 90.910156 235.085938 90.878906 C 235.089844 90.84375 235.09375 90.808594 235.101562 90.777344 C 235.105469 90.757812 235.105469 90.738281 235.105469 90.714844 C 235.109375 90.703125 235.113281 90.699219 235.117188 90.6875 C 235.128906 90.65625 235.136719 90.621094 235.148438 90.589844 C 235.160156 90.5625 235.167969 90.53125 235.183594 90.503906 C 235.199219 90.476562 235.214844 90.449219 235.234375 90.417969 C 235.25 90.394531 235.265625 90.367188 235.28125 90.34375 C 235.304688 90.316406 235.328125 90.292969 235.351562 90.265625 C 235.371094 90.246094 235.386719 90.222656 235.410156 90.203125 C 235.433594 90.179688 235.464844 90.160156 235.492188 90.140625 C 235.515625 90.125 235.539062 90.105469 235.566406 90.09375 C 235.574219 90.085938 235.582031 90.078125 235.59375 90.074219 C 236.921875 89.339844 237.777344 87.964844 238.003906 86.199219 C 238.371094 83.355469 237.039062 80.109375 234.53125 77.734375 C 234.515625 77.71875 234.5 77.699219 234.488281 77.683594 C 234.484375 77.683594 234.484375 77.679688 234.484375 77.679688 C 234.460938 77.65625 234.441406 77.636719 234.421875 77.613281 C 234.417969 77.609375 234.414062 77.601562 234.410156 77.59375 C 234.394531 77.574219 234.378906 77.546875 234.363281 77.519531 C 234.351562 77.496094 234.335938 77.476562 234.324219 77.453125 C 234.320312 77.445312 234.320312 77.4375 234.316406 77.429688 C 234.300781 77.402344 234.292969 77.375 234.28125 77.347656 C 234.277344 77.324219 234.261719 77.300781 234.257812 77.277344 C 234.257812 77.269531 234.253906 77.257812 234.253906 77.246094 C 234.246094 77.222656 234.242188 77.195312 234.238281 77.167969 C 234.234375 77.140625 234.226562 77.113281 234.226562 77.089844 L 234.226562 77.0625 C 234.222656 77.03125 234.226562 77.003906 234.230469 76.976562 " fill-opacity="1" fill-rule="nonzero"/><path fill="#01c6f7" d="M 263.007812 70.894531 C 263.148438 70.960938 263.296875 70.996094 263.441406 70.996094 C 263.804688 70.996094 264.15625 70.792969 264.324219 70.445312 C 266.902344 65.191406 269.359375 59.800781 271.742188 54.453125 C 273.824219 55.308594 275.972656 56.1875 278.140625 56.898438 C 278.242188 56.933594 278.347656 56.949219 278.449219 56.949219 C 278.863281 56.949219 279.246094 56.6875 279.382812 56.273438 C 279.550781 55.757812 279.269531 55.203125 278.753906 55.035156 C 276.667969 54.347656 274.574219 53.496094 272.546875 52.660156 C 273.386719 50.765625 274.21875 48.878906 275.042969 47.007812 L 275.316406 46.386719 C 275.535156 45.890625 275.3125 45.308594 274.816406 45.09375 C 274.320312 44.875 273.738281 45.097656 273.519531 45.59375 L 273.246094 46.214844 C 272.414062 48.101562 271.574219 50.003906 270.726562 51.917969 C 268.472656 51.003906 266.160156 50.117188 263.800781 49.476562 C 263.277344 49.332031 262.738281 49.640625 262.597656 50.164062 C 262.453125 50.6875 262.761719 51.226562 263.285156 51.371094 C 265.523438 51.980469 267.746094 52.832031 269.925781 53.710938 C 267.554688 59.023438 265.113281 64.371094 262.5625 69.578125 C 262.320312 70.066406 262.523438 70.65625 263.007812 70.894531 " fill-opacity="1" fill-rule="nonzero"/><path fill="#01c6f7" d="M 93.546875 155.25 C 93.539062 155.25 93.535156 155.25 93.53125 155.25 C 92.988281 155.242188 92.554688 154.796875 92.5625 154.253906 C 92.570312 153.710938 93.027344 153.277344 93.558594 153.285156 C 94.132812 153.292969 108.703125 152.863281 116.53125 152.636719 C 121.671875 152.484375 122.464844 152.460938 122.519531 152.460938 L 122.523438 152.460938 C 123.0625 152.464844 123.503906 152.90625 123.5 153.445312 C 123.5 153.988281 123.0625 154.425781 122.519531 154.425781 C 122.40625 154.429688 119.839844 154.503906 116.589844 154.597656 C 105.285156 154.929688 94.207031 155.25 93.546875 155.25 " fill-opacity="1" fill-rule="nonzero"/><path fill="#01c6f7" d="M 93.214844 167.902344 C 92.695312 167.902344 92.261719 167.492188 92.234375 166.96875 C 92.210938 166.425781 92.628906 165.964844 93.171875 165.941406 C 96.179688 165.800781 123.0625 164.675781 123.492188 164.6875 C 124.03125 164.703125 124.460938 165.15625 124.445312 165.699219 C 124.429688 166.242188 123.976562 166.664062 123.433594 166.652344 C 122.78125 166.660156 97.664062 167.699219 93.261719 167.902344 C 93.246094 167.902344 93.230469 167.902344 93.214844 167.902344 " fill-opacity="1" fill-rule="nonzero"/><path fill="#01c6f7" d="M 93.214844 179.902344 C 92.699219 179.902344 92.265625 179.5 92.234375 178.976562 C 92.207031 178.433594 92.621094 177.96875 93.164062 177.941406 C 99.75 177.585938 107.21875 177.382812 114.445312 177.183594 C 119.003906 177.058594 123.3125 176.941406 127.3125 176.789062 C 127.847656 176.773438 128.3125 177.191406 128.332031 177.734375 C 128.351562 178.277344 127.929688 178.734375 127.386719 178.753906 C 123.375 178.90625 119.0625 179.023438 114.5 179.148438 C 107.285156 179.34375 99.828125 179.546875 93.269531 179.902344 C 93.25 179.902344 93.234375 179.902344 93.214844 179.902344 " fill-opacity="1" fill-rule="nonzero"/><path fill="#01c6f7" d="M 94.035156 203.210938 C 93.507812 203.210938 93.070312 202.789062 93.054688 202.257812 C 93.039062 201.714844 93.464844 201.261719 94.007812 201.246094 C 94.128906 201.242188 106.207031 200.882812 112.480469 200.882812 C 113.023438 200.882812 113.460938 201.324219 113.460938 201.867188 C 113.460938 202.410156 113.023438 202.847656 112.480469 202.847656 C 106.238281 202.847656 94.1875 203.207031 94.066406 203.210938 C 94.054688 203.210938 94.042969 203.210938 94.035156 203.210938 " fill-opacity="1" fill-rule="nonzero"/><path fill="#01c6f7" d="M 122.519531 202.722656 C 121.988281 202.722656 121.550781 202.296875 121.539062 201.761719 C 121.527344 201.21875 121.953125 200.769531 122.496094 200.757812 C 122.71875 200.753906 144.699219 200.25 153.757812 199.992188 C 154.289062 199.980469 154.753906 200.402344 154.769531 200.945312 C 154.785156 201.488281 154.355469 201.941406 153.816406 201.953125 C 144.75 202.210938 122.761719 202.714844 122.542969 202.722656 C 122.535156 202.722656 122.527344 202.722656 122.519531 202.722656 " fill-opacity="1" fill-rule="nonzero"/><path fill="#01c6f7" d="M 93.542969 191.339844 C 93.03125 191.339844 92.601562 190.941406 92.5625 190.425781 C 92.527344 189.882812 92.933594 189.414062 93.476562 189.375 C 93.542969 189.371094 153.304688 188.878906 153.800781 188.878906 L 154.113281 188.882812 C 154.65625 188.882812 155.097656 189.320312 155.097656 189.863281 C 155.097656 190.40625 154.65625 190.84375 154.113281 190.84375 L 153.800781 190.84375 C 152.914062 190.851562 94.1875 191.332031 93.5625 191.339844 C 93.558594 191.339844 93.550781 191.339844 93.542969 191.339844 " fill-opacity="1" fill-rule="nonzero"/><path fill="#01c6f7" d="M 48.785156 123.867188 C 46.859375 123.867188 45.292969 125.328125 45.292969 127.125 C 45.292969 128.859375 46.636719 130.722656 48.640625 130.722656 C 50.550781 130.722656 52.496094 128.90625 52.496094 127.125 C 52.496094 125.386719 50.761719 123.867188 48.785156 123.867188 Z M 48.640625 132.6875 C 45.761719 132.6875 43.328125 130.140625 43.328125 127.125 C 43.328125 124.246094 45.777344 121.902344 48.785156 121.902344 C 51.863281 121.902344 54.460938 124.292969 54.460938 127.125 C 54.460938 129.984375 51.632812 132.6875 48.640625 132.6875 " fill-opacity="1" fill-rule="nonzero"/><path fill="#01c6f7" d="M 64.832031 123.863281 C 64.242188 123.863281 63.644531 123.992188 63.089844 124.265625 C 62.242188 124.683594 61.601562 125.382812 61.285156 126.238281 C 60.972656 127.074219 61.011719 127.957031 61.390625 128.730469 C 61.789062 129.542969 62.515625 130.203125 63.378906 130.546875 C 64.261719 130.898438 65.1875 130.875 65.980469 130.484375 C 67.695312 129.640625 68.640625 127.152344 67.855469 125.550781 C 67.328125 124.484375 66.113281 123.863281 64.832031 123.863281 Z M 64.636719 132.761719 C 63.976562 132.761719 63.308594 132.632812 62.65625 132.375 C 61.34375 131.851562 60.242188 130.839844 59.628906 129.597656 C 59.007812 128.335938 58.941406 126.902344 59.441406 125.554688 C 59.9375 124.226562 60.921875 123.140625 62.222656 122.503906 C 64.980469 121.144531 68.367188 122.144531 69.617188 124.683594 C 70.878906 127.25 69.535156 130.925781 66.847656 132.246094 C 66.152344 132.585938 65.402344 132.761719 64.636719 132.761719 " fill-opacity="1" fill-rule="nonzero"/><path fill="#01c6f7" d="M 75.914062 127.300781 L 75.917969 127.300781 Z M 80.765625 123.875 C 79.871094 123.875 78.929688 124.253906 78.167969 124.925781 C 77.390625 125.613281 76.929688 126.492188 76.898438 127.335938 C 76.867188 128.171875 77.226562 128.988281 77.90625 129.636719 C 78.59375 130.292969 79.535156 130.691406 80.488281 130.722656 C 81.433594 130.757812 82.324219 130.445312 83.011719 129.839844 C 83.679688 129.25 84.0625 128.453125 84.09375 127.59375 C 84.15625 125.859375 82.878906 123.949219 80.878906 123.878906 C 80.84375 123.878906 80.804688 123.875 80.765625 123.875 Z M 80.625 132.691406 C 80.558594 132.691406 80.488281 132.691406 80.417969 132.6875 C 78.992188 132.636719 77.582031 132.042969 76.546875 131.058594 C 75.457031 130.019531 74.882812 128.671875 74.933594 127.265625 C 74.984375 125.882812 75.691406 124.492188 76.871094 123.453125 C 78.039062 122.421875 79.527344 121.859375 80.949219 121.914062 C 83.828125 122.019531 86.167969 124.652344 86.058594 127.664062 C 86.007812 129.070312 85.386719 130.367188 84.308594 131.316406 C 83.296875 132.207031 81.996094 132.691406 80.625 132.691406 " fill-opacity="1" fill-rule="nonzero"/><path fill="#01c6f7" d="M 97.378906 109.742188 C 97.117188 109.742188 96.859375 109.640625 96.664062 109.433594 C 93.972656 106.582031 90.585938 104.160156 86.589844 102.226562 C 86.101562 101.988281 85.898438 101.402344 86.132812 100.914062 C 86.371094 100.425781 86.957031 100.222656 87.445312 100.457031 C 91.65625 102.496094 95.238281 105.0625 98.09375 108.085938 C 98.464844 108.480469 98.449219 109.101562 98.054688 109.472656 C 97.863281 109.652344 97.621094 109.742188 97.378906 109.742188 " fill-opacity="1" fill-rule="nonzero"/><path fill="#01c6f7" d="M 34.835938 145.265625 C 34.554688 145.265625 34.28125 145.148438 34.085938 144.917969 C 29.882812 139.96875 27.839844 134.144531 27.839844 127.109375 C 27.839844 126.566406 28.28125 126.125 28.824219 126.125 C 29.367188 126.125 29.804688 126.566406 29.804688 127.109375 C 29.804688 133.660156 31.695312 139.070312 35.582031 143.648438 C 35.933594 144.0625 35.882812 144.683594 35.46875 145.03125 C 35.285156 145.191406 35.058594 145.265625 34.835938 145.265625 " fill-opacity="1" fill-rule="nonzero"/><path fill="#01c6f7" d="M 32.671875 112.925781 C 32.5 112.925781 32.328125 112.882812 32.171875 112.789062 C 31.703125 112.511719 31.550781 111.910156 31.828125 111.441406 C 33.628906 108.417969 36.054688 105.734375 39.039062 103.46875 C 39.472656 103.140625 40.089844 103.222656 40.417969 103.65625 C 40.746094 104.089844 40.660156 104.703125 40.226562 105.03125 C 37.441406 107.148438 35.1875 109.640625 33.515625 112.445312 C 33.332031 112.753906 33.007812 112.925781 32.671875 112.925781 " fill-opacity="1" fill-rule="nonzero"/><path fill="#01c6f7" d="M 149.203125 217.125 C 148.777344 217.125 148.382812 216.84375 148.257812 216.414062 C 148.109375 215.894531 148.410156 215.347656 148.929688 215.199219 C 153.0625 214.007812 155.679688 212.132812 157.164062 209.296875 C 157.417969 208.8125 158.011719 208.628906 158.492188 208.882812 C 158.972656 209.132812 159.15625 209.726562 158.90625 210.207031 C 157.175781 213.507812 154.09375 215.757812 149.476562 217.085938 C 149.386719 217.113281 149.292969 217.125 149.203125 217.125 " fill-opacity="1" fill-rule="nonzero"/><path fill="#01c6f7" d="M 97.449219 216.316406 C 97.421875 216.316406 97.398438 216.316406 97.375 216.3125 C 90.074219 215.773438 85.789062 212.773438 83.894531 206.875 C 83.726562 206.359375 84.011719 205.808594 84.527344 205.640625 C 85.042969 205.476562 85.597656 205.757812 85.761719 206.277344 C 87.425781 211.453125 90.945312 213.867188 97.519531 214.355469 C 98.0625 214.394531 98.46875 214.867188 98.425781 215.40625 C 98.386719 215.921875 97.957031 216.316406 97.449219 216.316406 " fill-opacity="1" fill-rule="nonzero"/><path fill="#01c6f7" d="M 84.027344 203.976562 C 83.546875 203.976562 83.125 203.625 83.054688 203.132812 C 82.828125 201.542969 82.714844 199.757812 82.714844 197.820312 C 82.714844 197.273438 83.152344 196.835938 83.695312 196.835938 C 84.238281 196.835938 84.679688 197.273438 84.679688 197.820312 C 84.679688 199.664062 84.785156 201.359375 85 202.855469 C 85.078125 203.394531 84.703125 203.890625 84.167969 203.96875 C 84.117188 203.972656 84.074219 203.976562 84.027344 203.976562 " fill-opacity="1" fill-rule="nonzero"/><path fill="#01c6f7" d="M 83.230469 153.117188 C 82.714844 153.117188 82.28125 152.714844 82.25 152.195312 C 81.769531 144.195312 84.992188 138.980469 91.835938 136.6875 C 92.351562 136.515625 92.90625 136.792969 93.078125 137.304688 C 93.25 137.820312 92.976562 138.378906 92.460938 138.550781 C 86.480469 140.550781 83.785156 144.976562 84.210938 152.074219 C 84.242188 152.617188 83.832031 153.082031 83.289062 153.113281 C 83.269531 153.117188 83.25 153.117188 83.230469 153.117188 " fill-opacity="1" fill-rule="nonzero"/><path fill="#01c6f7" d="M 97.964844 137.238281 C 97.507812 137.238281 97.101562 136.921875 97.003906 136.460938 C 96.890625 135.929688 97.226562 135.410156 97.757812 135.296875 C 99.726562 134.875 101.664062 134.867188 101.746094 134.867188 C 102.289062 134.867188 102.726562 135.308594 102.726562 135.851562 C 102.726562 136.394531 102.289062 136.832031 101.746094 136.832031 C 101.726562 136.832031 99.929688 136.839844 98.167969 137.214844 C 98.101562 137.230469 98.03125 137.238281 97.964844 137.238281 " fill-opacity="1" fill-rule="nonzero"/><g clip-path="url(#28be2abf8c)"><path fill="#01c6f7" d="M 159.476562 216.921875 C 156.65625 219.742188 152.925781 221.457031 147.738281 222.308594 C 147.382812 222.371094 147.09375 222.613281 146.972656 222.949219 C 146.949219 223.011719 146.425781 224.5 146.679688 226.578125 C 146.855469 228.054688 147.464844 230.074219 149.222656 232.089844 C 139.449219 231.71875 133.585938 222.605469 133.523438 222.507812 C 133.347656 222.226562 133.039062 222.050781 132.710938 222.046875 L 108.625 221.644531 C 95.382812 221.644531 87.863281 220.15625 83.484375 216.667969 C 79.15625 213.21875 77.390625 207.5625 77.390625 197.140625 C 77.390625 187.066406 77.222656 178.558594 77.085938 171.71875 C 76.675781 150.882812 76.5 142.257812 81.75 137.007812 C 86.878906 131.878906 97.957031 129.792969 119.996094 129.792969 C 120.625 129.792969 121.246094 129.792969 121.859375 129.796875 C 121.890625 131.292969 121.917969 132.847656 121.949219 134.484375 C 122.085938 141.3125 122.253906 149.8125 122.253906 159.867188 C 122.253906 180.644531 129.390625 186.335938 155.4375 186.335938 C 160.0625 186.410156 164.191406 186.5 167.9375 186.589844 C 166.941406 203.296875 164.550781 211.851562 159.476562 216.921875 Z M 74.953125 161.761719 C 68.425781 162.882812 61.5625 162.671875 55.066406 161.140625 C 54.753906 161.070312 54.421875 161.152344 54.183594 161.367188 C 51.460938 163.8125 47.199219 167.101562 45.195312 168.625 C 44.71875 166.558594 44.261719 162.597656 43.910156 157.492188 C 43.886719 157.15625 43.695312 156.855469 43.402344 156.695312 C 30.507812 149.632812 24.238281 139.953125 24.238281 127.109375 C 24.238281 102.847656 44.800781 91.988281 65.175781 91.988281 C 79.371094 91.988281 92.65625 97.082031 100.710938 105.613281 C 106.492188 111.738281 109.371094 119.480469 109.054688 128.035156 C 93.382812 128.695312 84.992188 130.992188 80.363281 135.621094 C 75.527344 140.457031 74.816406 147.375 74.953125 161.761719 Z M 179.222656 148.753906 C 174.808594 146.128906 171.121094 143.867188 169.453125 142.632812 C 169.4375 142.625 169.425781 142.617188 169.410156 142.605469 C 169.382812 142.585938 169.351562 142.570312 169.320312 142.554688 C 169.292969 142.539062 169.265625 142.527344 169.238281 142.515625 C 169.207031 142.503906 169.175781 142.492188 169.144531 142.480469 C 169.113281 142.476562 169.085938 142.464844 169.054688 142.460938 C 169.023438 142.457031 168.992188 142.449219 168.960938 142.445312 C 168.929688 142.445312 168.902344 142.441406 168.871094 142.441406 C 168.835938 142.441406 168.800781 142.445312 168.765625 142.449219 C 168.742188 142.453125 168.714844 142.457031 168.683594 142.460938 C 168.652344 142.464844 168.617188 142.476562 168.582031 142.484375 C 168.558594 142.496094 168.527344 142.503906 168.5 142.515625 C 168.472656 142.527344 168.4375 142.539062 168.410156 142.558594 C 168.382812 142.570312 168.355469 142.585938 168.328125 142.605469 C 168.3125 142.617188 168.300781 142.625 168.28125 142.632812 C 166.566406 143.902344 162.722656 146.253906 158.144531 148.972656 C 158.1875 144.644531 158.117188 137.226562 158.074219 133.09375 C 158.0625 131.730469 158.050781 130.757812 158.050781 130.425781 L 158.050781 130.164062 C 158.039062 128.964844 158.035156 128.175781 159.839844 127.058594 C 161.523438 126.015625 164.414062 124.984375 168.683594 123.90625 C 172.953125 124.984375 175.851562 126.015625 177.53125 127.058594 C 179.335938 128.175781 179.328125 128.964844 179.320312 130.164062 L 179.320312 130.425781 C 179.320312 130.757812 179.308594 131.730469 179.296875 133.09375 C 179.257812 137.160156 179.183594 144.398438 179.222656 148.753906 Z M 179.582031 184.894531 C 179.574219 183.957031 179.601562 181.785156 179.621094 179.972656 C 179.644531 178.199219 179.664062 176.367188 179.664062 175.222656 C 179.664062 169.296875 178.527344 161.40625 168.675781 161.292969 C 158.84375 161.40625 157.707031 169.296875 157.707031 175.222656 C 157.707031 176.101562 157.714844 177.378906 157.71875 178.730469 C 157.730469 180.65625 157.738281 183.105469 157.734375 184.410156 C 156.988281 184.398438 156.226562 184.382812 155.453125 184.371094 C 152.765625 184.371094 150.320312 184.308594 148.085938 184.179688 C 148.207031 181.828125 148.128906 173.949219 148.015625 164.699219 C 147.980469 161.527344 147.945312 158.777344 147.941406 157.253906 C 148.753906 156.78125 149.578125 156.296875 150.414062 155.808594 C 157.890625 151.425781 165.609375 146.898438 168.867188 144.628906 C 172.128906 146.898438 179.847656 151.425781 187.324219 155.808594 C 188.035156 156.222656 188.742188 156.636719 189.4375 157.046875 C 189.4375 157.066406 189.429688 157.085938 189.429688 157.109375 C 189.425781 158.601562 189.394531 161.425781 189.355469 164.699219 C 189.234375 174.703125 189.148438 183.105469 189.320312 184.644531 C 189.332031 184.757812 189.363281 184.859375 189.410156 184.953125 C 186.679688 185.003906 183.453125 184.972656 179.582031 184.894531 Z M 159.683594 178.722656 C 159.679688 177.371094 159.671875 176.101562 159.671875 175.222656 C 159.671875 166.90625 162.371094 163.328125 168.675781 163.253906 C 175 163.328125 177.703125 166.90625 177.703125 175.222656 C 177.703125 176.355469 177.679688 178.183594 177.65625 179.949219 C 177.625 182.503906 177.609375 184.035156 177.617188 184.855469 C 175.828125 184.816406 173.910156 184.769531 171.851562 184.71875 C 168.214844 184.628906 164.207031 184.535156 159.695312 184.445312 C 159.703125 183.375 159.699219 181.519531 159.683594 178.722656 Z M 128.582031 99.734375 C 133.707031 94.605469 144.789062 92.515625 166.824219 92.515625 C 192.574219 92.515625 205.9375 94.890625 211.496094 100.449219 C 213.992188 102.945312 214.957031 105.96875 215.28125 110.175781 C 215.386719 111.539062 215.425781 113.023438 215.425781 114.660156 C 215.425781 153.503906 214.5625 171.390625 206.308594 179.644531 C 202.628906 183.320312 199.289062 184.601562 191.203125 184.90625 C 191.261719 184.757812 191.292969 184.597656 191.273438 184.429688 C 191.097656 182.882812 191.230469 171.957031 191.320312 164.722656 C 191.351562 162.113281 191.378906 159.789062 191.390625 158.191406 C 194.855469 160.230469 197.96875 162.078125 200.171875 163.449219 C 200.335938 163.550781 200.511719 163.597656 200.6875 163.597656 C 201.019531 163.597656 201.339844 163.433594 201.523438 163.136719 C 201.8125 162.671875 201.671875 162.066406 201.210938 161.78125 C 198.148438 159.875 193.371094 157.074219 188.316406 154.113281 C 185.917969 152.703125 183.492188 151.28125 181.203125 149.929688 C 181.136719 145.859375 181.21875 137.574219 181.261719 133.113281 C 181.273438 131.742188 181.285156 130.761719 181.285156 130.425781 L 181.285156 130.183594 C 181.292969 128.804688 181.308594 127.085938 178.566406 125.386719 C 176.816406 124.304688 173.980469 123.257812 169.917969 122.195312 C 169.941406 118.984375 169.953125 113.359375 169.933594 108.667969 C 171.777344 108.621094 173.554688 108.59375 175.277344 108.578125 C 175.816406 108.574219 176.253906 108.128906 176.25 107.589844 C 176.246094 107.050781 175.804688 106.613281 175.269531 106.613281 L 175.257812 106.613281 C 173.539062 106.628906 171.765625 106.65625 169.925781 106.703125 C 169.914062 104.488281 169.894531 102.632812 169.863281 101.597656 C 169.851562 101.050781 169.390625 100.621094 168.855469 100.640625 C 168.316406 100.652344 167.886719 101.105469 167.898438 101.648438 C 167.929688 102.6875 167.949219 104.539062 167.960938 106.753906 C 166.222656 106.804688 164.421875 106.867188 162.535156 106.941406 C 161.996094 106.964844 161.574219 107.421875 161.597656 107.964844 C 161.617188 108.496094 162.050781 108.90625 162.574219 108.90625 L 162.617188 108.90625 C 164.476562 108.832031 166.253906 108.769531 167.972656 108.71875 C 167.988281 113.339844 167.976562 118.855469 167.953125 122.070312 C 163.621094 123.175781 160.625 124.261719 158.804688 125.386719 C 156.0625 127.085938 156.078125 128.804688 156.085938 130.183594 L 156.085938 130.425781 C 156.085938 130.761719 156.097656 131.742188 156.109375 133.113281 C 156.15625 137.589844 156.238281 145.925781 156.167969 149.980469 C 156.167969 150.035156 156.175781 150.085938 156.179688 150.136719 C 153.996094 151.429688 151.695312 152.777344 149.417969 154.113281 C 144.363281 157.074219 139.585938 159.875 136.523438 161.78125 C 136.0625 162.066406 135.921875 162.671875 136.210938 163.136719 C 136.394531 163.433594 136.71875 163.597656 137.042969 163.597656 C 137.222656 163.597656 137.402344 163.550781 137.5625 163.449219 C 139.691406 162.125 142.664062 160.359375 145.984375 158.402344 C 145.996094 159.992188 146.023438 162.226562 146.050781 164.722656 C 146.132812 171.519531 146.253906 181.578125 146.125 184.050781 C 138.46875 183.445312 133.539062 181.960938 130.3125 179.390625 C 125.984375 175.945312 124.21875 170.289062 124.21875 159.867188 C 124.21875 149.792969 124.050781 141.285156 123.914062 134.445312 C 123.707031 123.917969 123.5625 116.507812 124.144531 111.074219 C 124.714844 105.753906 125.984375 102.332031 128.582031 99.734375 Z M 212.886719 99.0625 C 206.839844 93.019531 193.496094 90.550781 166.824219 90.550781 C 143.910156 90.550781 132.800781 92.738281 127.191406 98.34375 C 121.996094 103.539062 121.5625 111.140625 121.828125 127.832031 C 121.222656 127.828125 120.617188 127.828125 119.996094 127.828125 C 116.773438 127.828125 113.796875 127.875 111.023438 127.960938 C 111.324219 118.925781 108.261719 110.75 102.140625 104.265625 C 93.722656 95.34375 79.902344 90.023438 65.175781 90.023438 C 53.804688 90.023438 43.328125 93.222656 35.671875 99.035156 C 26.90625 105.691406 22.277344 115.398438 22.277344 127.109375 C 22.277344 140.578125 28.726562 150.742188 41.988281 158.160156 C 42.324219 162.925781 42.902344 168.757812 43.777344 170.660156 C 43.902344 170.929688 44.144531 171.128906 44.429688 171.203125 C 44.507812 171.222656 44.589844 171.230469 44.671875 171.230469 C 44.882812 171.230469 45.089844 171.167969 45.257812 171.039062 C 45.515625 170.84375 51.371094 166.46875 55.113281 163.167969 C 61.617188 164.632812 68.449219 164.832031 74.976562 163.753906 C 75.011719 166.210938 75.0625 168.867188 75.121094 171.757812 C 75.257812 178.589844 75.425781 187.089844 75.425781 197.140625 C 75.425781 217.917969 82.558594 223.609375 108.609375 223.609375 L 132.160156 224 C 133.578125 226.042969 139.785156 234.070312 149.773438 234.066406 C 150.394531 234.066406 151.035156 234.039062 151.6875 233.972656 C 152.082031 233.929688 152.417969 233.65625 152.527344 233.273438 C 152.640625 232.890625 152.515625 232.480469 152.203125 232.226562 C 148.207031 229.019531 148.429688 225.464844 148.6875 224.136719 C 153.976562 223.179688 157.859375 221.320312 160.867188 218.308594 C 166.320312 212.855469 168.878906 203.925781 169.902344 186.636719 C 170.546875 186.652344 171.179688 186.667969 171.800781 186.683594 C 177.632812 186.824219 182.378906 186.9375 186.3125 186.9375 C 198.476562 186.9375 202.890625 185.839844 207.695312 181.035156 C 216.472656 172.261719 217.390625 154.070312 217.390625 114.660156 C 217.390625 108.8125 217.046875 103.21875 212.886719 99.0625 " fill-opacity="1" fill-rule="nonzero"/></g><g clip-path="url(#352bcce610)"><path fill="#01c6f7" d="M 115.058594 3.445312 L 105.324219 3.445312 C 104.410156 3.445312 103.691406 2.726562 103.691406 1.8125 C 103.691406 0.894531 104.410156 0.179688 105.324219 0.179688 L 115.058594 0.179688 C 115.972656 0.179688 116.691406 0.894531 116.691406 1.8125 C 116.691406 2.726562 115.972656 3.445312 115.058594 3.445312 Z M 98.859375 236.304688 L 89.125 236.304688 C 88.210938 236.304688 87.492188 237.023438 87.492188 237.9375 C 87.492188 238.851562 88.210938 239.570312 89.125 239.570312 L 98.859375 239.570312 C 99.773438 239.570312 100.492188 238.851562 100.492188 237.9375 C 100.492188 237.023438 99.773438 236.304688 98.859375 236.304688 Z M 124.726562 236.304688 L 114.992188 236.304688 C 114.078125 236.304688 113.359375 237.023438 113.359375 237.9375 C 113.359375 238.851562 114.078125 239.570312 114.992188 239.570312 L 124.726562 239.570312 C 125.640625 239.570312 126.359375 238.851562 126.359375 237.9375 C 126.359375 237.023438 125.640625 236.304688 124.726562 236.304688 Z M 142.558594 1.8125 C 142.558594 0.894531 141.839844 0.179688 140.921875 0.179688 L 131.191406 0.179688 C 130.277344 0.179688 129.558594 0.894531 129.558594 1.8125 C 129.558594 2.726562 130.277344 3.445312 131.191406 3.445312 L 140.921875 3.445312 C 141.839844 3.445312 142.558594 2.726562 142.558594 1.8125 Z M 72.925781 236.304688 L 63.195312 236.304688 C 62.28125 236.304688 61.5625 237.023438 61.5625 237.9375 C 61.5625 238.851562 62.28125 239.570312 63.195312 239.570312 L 72.925781 239.570312 C 73.839844 239.570312 74.558594 238.851562 74.558594 237.9375 C 74.558594 237.023438 73.839844 236.304688 72.925781 236.304688 Z M 90.757812 1.8125 C 90.757812 0.894531 90.039062 0.179688 89.125 0.179688 L 79.394531 0.179688 C 78.480469 0.179688 77.761719 0.894531 77.761719 1.8125 C 77.761719 2.726562 78.480469 3.445312 79.394531 3.445312 L 89.125 3.445312 C 90.039062 3.445312 90.757812 2.726562 90.757812 1.8125 Z M 202.453125 236.304688 L 192.722656 236.304688 C 191.808594 236.304688 191.089844 237.023438 191.089844 237.9375 C 191.089844 238.851562 191.808594 239.570312 192.722656 239.570312 L 202.453125 239.570312 C 203.367188 239.570312 204.085938 238.851562 204.085938 237.9375 C 204.085938 237.023438 203.367188 236.304688 202.453125 236.304688 Z M 64.894531 1.8125 C 64.894531 0.894531 64.175781 0.179688 63.257812 0.179688 L 53.527344 0.179688 C 52.613281 0.179688 51.894531 0.894531 51.894531 1.8125 C 51.894531 2.726562 52.613281 3.445312 53.527344 3.445312 L 63.257812 3.445312 C 64.175781 3.445312 64.894531 2.726562 64.894531 1.8125 Z M 194.417969 1.8125 C 194.417969 0.894531 193.703125 0.179688 192.785156 0.179688 L 183.054688 0.179688 C 182.140625 0.179688 181.421875 0.894531 181.421875 1.8125 C 181.421875 2.726562 182.140625 3.445312 183.054688 3.445312 L 192.785156 3.445312 C 193.703125 3.445312 194.417969 2.726562 194.417969 1.8125 Z M 168.488281 1.8125 C 168.488281 0.894531 167.769531 0.179688 166.855469 0.179688 L 157.121094 0.179688 C 156.207031 0.179688 155.488281 0.894531 155.488281 1.8125 C 155.488281 2.726562 156.207031 3.445312 157.121094 3.445312 L 166.855469 3.445312 C 167.769531 3.445312 168.488281 2.726562 168.488281 1.8125 Z M 176.585938 236.304688 L 166.855469 236.304688 C 165.941406 236.304688 165.222656 237.023438 165.222656 237.9375 C 165.222656 238.851562 165.941406 239.570312 166.855469 239.570312 L 176.585938 239.570312 C 177.503906 239.570312 178.222656 238.851562 178.222656 237.9375 C 178.222656 237.023438 177.4375 236.304688 176.585938 236.304688 Z M 150.65625 236.304688 L 140.921875 236.304688 C 140.007812 236.304688 139.289062 237.023438 139.289062 237.9375 C 139.289062 238.851562 140.007812 239.570312 140.921875 239.570312 L 150.65625 239.570312 C 151.570312 239.570312 152.289062 238.851562 152.289062 237.9375 C 152.289062 237.023438 151.570312 236.304688 150.65625 236.304688 Z M 1.859375 40.542969 C 2.773438 40.542969 3.492188 39.828125 3.492188 38.910156 L 3.492188 29.179688 C 3.492188 28.265625 2.773438 27.546875 1.859375 27.546875 C 0.945312 27.546875 0.226562 28.265625 0.226562 29.179688 L 0.226562 38.910156 C 0.226562 39.761719 0.945312 40.542969 1.859375 40.542969 Z M 1.859375 118.207031 C 2.773438 118.207031 3.492188 117.492188 3.492188 116.574219 L 3.492188 106.84375 C 3.492188 105.929688 2.773438 105.210938 1.859375 105.210938 C 0.945312 105.210938 0.226562 105.996094 0.226562 106.910156 L 0.226562 116.640625 C 0.226562 117.492188 0.945312 118.207031 1.859375 118.207031 Z M 47.0625 236.304688 L 37.328125 236.304688 C 36.414062 236.304688 35.695312 237.023438 35.695312 237.9375 C 35.695312 238.851562 36.414062 239.570312 37.328125 239.570312 L 47.0625 239.570312 C 47.976562 239.570312 48.695312 238.851562 48.695312 237.9375 C 48.695312 237.023438 47.910156 236.304688 47.0625 236.304688 Z M 1.859375 144.140625 C 2.773438 144.140625 3.492188 143.421875 3.492188 142.507812 L 3.492188 132.773438 C 3.492188 131.859375 2.773438 131.140625 1.859375 131.140625 C 0.945312 131.140625 0.226562 131.925781 0.226562 132.773438 L 0.226562 142.507812 C 0.226562 143.421875 0.945312 144.140625 1.859375 144.140625 Z M 1.859375 66.410156 C 2.773438 66.410156 3.492188 65.691406 3.492188 64.777344 L 3.492188 55.109375 C 3.492188 54.195312 2.773438 53.476562 1.859375 53.476562 C 0.945312 53.476562 0.226562 54.195312 0.226562 55.109375 L 0.226562 64.84375 C 0.226562 65.691406 0.945312 66.410156 1.859375 66.410156 Z M 220.285156 1.8125 C 220.285156 0.894531 219.566406 0.179688 218.652344 0.179688 L 208.921875 0.179688 C 208.007812 0.179688 207.289062 0.894531 207.289062 1.8125 C 207.289062 2.726562 208.007812 3.445312 208.921875 3.445312 L 218.652344 3.445312 C 219.566406 3.445312 220.285156 2.726562 220.285156 1.8125 Z M 1.859375 170.070312 C 2.773438 170.070312 3.492188 169.351562 3.492188 168.4375 L 3.492188 158.707031 C 3.492188 157.792969 2.773438 157.074219 1.859375 157.074219 C 0.945312 157.074219 0.226562 157.792969 0.226562 158.707031 L 0.226562 168.4375 C 0.226562 169.289062 0.945312 170.070312 1.859375 170.070312 Z M 1.859375 92.34375 C 2.773438 92.34375 3.492188 91.625 3.492188 90.710938 L 3.492188 80.976562 C 3.492188 80.0625 2.773438 79.34375 1.859375 79.34375 C 0.945312 79.34375 0.226562 80.0625 0.226562 80.976562 L 0.226562 90.710938 C 0.226562 91.625 0.945312 92.34375 1.859375 92.34375 Z M 38.960938 1.8125 C 38.960938 0.894531 38.242188 0.179688 37.328125 0.179688 L 27.597656 0.179688 C 26.679688 0.179688 25.960938 0.894531 25.960938 1.8125 C 25.960938 2.726562 26.746094 3.445312 27.597656 3.445312 L 37.328125 3.445312 C 38.242188 3.445312 38.960938 2.726562 38.960938 1.8125 Z M 21.585938 235.519531 C 18.648438 234.738281 15.902344 233.496094 13.421875 231.667969 C 12.703125 231.144531 11.65625 231.277344 11.136719 231.992188 C 10.613281 232.710938 10.742188 233.757812 11.460938 234.28125 C 14.269531 236.304688 17.40625 237.808594 20.738281 238.65625 C 20.867188 238.722656 21 238.722656 21.128906 238.722656 C 21.847656 238.722656 22.5 238.199219 22.695312 237.480469 C 23.023438 236.632812 22.5 235.71875 21.585938 235.519531 Z M 13.421875 8.015625 C 14.140625 7.492188 14.335938 6.449219 13.8125 5.730469 C 13.289062 5.011719 12.246094 4.878906 11.527344 5.402344 C 8.71875 7.429688 6.367188 9.976562 4.472656 12.851562 C 4.015625 13.632812 4.210938 14.613281 4.996094 15.136719 C 5.257812 15.332031 5.582031 15.398438 5.84375 15.398438 C 6.367188 15.398438 6.890625 15.136719 7.214844 14.613281 C 8.914062 12.066406 11.003906 9.84375 13.421875 8.015625 Z M 1.859375 195.9375 C 2.773438 195.9375 3.492188 195.21875 3.492188 194.304688 L 3.492188 184.574219 C 3.492188 183.660156 2.773438 182.941406 1.859375 182.941406 C 0.945312 182.941406 0.226562 183.722656 0.226562 184.636719 L 0.226562 194.371094 C 0.226562 195.21875 0.945312 195.9375 1.859375 195.9375 Z M 3.492188 212.136719 L 3.492188 210.503906 C 3.492188 209.589844 2.773438 208.871094 1.859375 208.871094 C 0.945312 208.871094 0.226562 209.589844 0.226562 210.503906 L 0.226562 212.136719 C 0.226562 215.011719 0.683594 217.886719 1.535156 220.5625 C 1.730469 221.28125 2.382812 221.671875 3.101562 221.671875 C 3.296875 221.671875 3.429688 221.671875 3.625 221.609375 C 4.472656 221.347656 4.929688 220.433594 4.667969 219.582031 C 3.886719 217.167969 3.492188 214.683594 3.492188 212.136719 Z M 435.445312 43.746094 C 434.53125 43.746094 433.8125 44.464844 433.8125 45.378906 L 433.8125 55.109375 C 433.8125 56.027344 434.53125 56.742188 435.445312 56.742188 C 436.359375 56.742188 437.078125 56.027344 437.078125 55.109375 L 437.078125 45.378906 C 437.078125 44.464844 436.359375 43.746094 435.445312 43.746094 Z M 432.3125 224.613281 C 431.527344 224.15625 430.546875 224.351562 430.023438 225.136719 C 428.390625 227.683594 426.300781 229.902344 423.820312 231.734375 C 423.101562 232.253906 422.90625 233.300781 423.425781 234.019531 C 423.753906 234.476562 424.277344 234.671875 424.734375 234.671875 C 425.058594 234.671875 425.386719 234.542969 425.714844 234.34375 C 428.523438 232.320312 430.875 229.773438 432.769531 226.898438 C 433.289062 226.050781 433.09375 225.070312 432.3125 224.613281 Z M 424.863281 8.34375 C 425.386719 8.34375 425.84375 8.082031 426.171875 7.691406 C 426.691406 6.972656 426.5625 5.925781 425.84375 5.402344 C 423.035156 3.378906 419.898438 1.875 416.570312 1.027344 C 415.71875 0.832031 414.804688 1.355469 414.609375 2.203125 C 414.414062 3.050781 414.9375 3.964844 415.785156 4.164062 C 418.722656 4.945312 421.46875 6.1875 423.949219 8.015625 C 424.210938 8.277344 424.539062 8.34375 424.863281 8.34375 Z M 435.445312 173.273438 C 434.53125 173.273438 433.8125 173.992188 433.8125 174.90625 L 433.8125 184.636719 C 433.8125 185.550781 434.53125 186.269531 435.445312 186.269531 C 436.359375 186.269531 437.078125 185.550781 437.078125 184.636719 L 437.078125 174.90625 C 437.078125 173.992188 436.359375 173.273438 435.445312 173.273438 Z M 435.445312 199.203125 C 434.53125 199.203125 433.8125 199.921875 433.8125 200.835938 L 433.8125 210.570312 C 433.8125 211.484375 434.53125 212.203125 435.445312 212.203125 C 436.359375 212.203125 437.078125 211.484375 437.078125 210.570312 L 437.078125 200.835938 C 437.078125 199.921875 436.359375 199.203125 435.445312 199.203125 Z M 401.609375 1.8125 C 401.609375 0.894531 400.890625 0.179688 399.976562 0.179688 L 390.246094 0.179688 C 389.332031 0.179688 388.613281 0.894531 388.613281 1.8125 C 388.613281 2.726562 389.332031 3.445312 390.246094 3.445312 L 399.976562 3.445312 C 400.890625 3.445312 401.609375 2.726562 401.609375 1.8125 Z M 409.710938 236.304688 L 399.976562 236.304688 C 399.0625 236.304688 398.34375 237.023438 398.34375 237.9375 C 398.34375 238.851562 399.0625 239.570312 399.976562 239.570312 L 409.710938 239.570312 C 410.625 239.570312 411.34375 238.851562 411.34375 237.9375 C 411.34375 237.023438 410.625 236.304688 409.710938 236.304688 Z M 435.445312 95.542969 C 434.53125 95.542969 433.8125 96.261719 433.8125 97.175781 L 433.8125 106.910156 C 433.8125 107.824219 434.53125 108.542969 435.445312 108.542969 C 436.359375 108.542969 437.078125 107.824219 437.078125 106.910156 L 437.078125 97.175781 C 437.078125 96.328125 436.359375 95.542969 435.445312 95.542969 Z M 435.445312 69.675781 C 434.53125 69.675781 433.8125 70.394531 433.8125 71.308594 L 433.8125 81.042969 C 433.8125 81.957031 434.53125 82.675781 435.445312 82.675781 C 436.359375 82.675781 437.078125 81.957031 437.078125 81.042969 L 437.078125 71.308594 C 437.078125 70.394531 436.359375 69.675781 435.445312 69.675781 Z M 435.773438 19.121094 C 435.511719 18.269531 434.597656 17.8125 433.746094 18.074219 C 432.898438 18.335938 432.441406 19.25 432.703125 20.101562 C 433.488281 22.515625 433.878906 25 433.878906 27.546875 L 433.878906 29.179688 C 433.878906 30.09375 434.597656 30.8125 435.511719 30.8125 C 436.425781 30.8125 437.144531 30.09375 437.144531 29.179688 L 437.144531 27.546875 C 437.078125 24.671875 436.6875 21.863281 435.773438 19.121094 Z M 383.777344 236.304688 L 374.046875 236.304688 C 373.132812 236.304688 372.414062 237.023438 372.414062 237.9375 C 372.414062 238.851562 373.132812 239.570312 374.046875 239.570312 L 383.777344 239.570312 C 384.691406 239.570312 385.410156 238.851562 385.410156 237.9375 C 385.410156 237.023438 384.691406 236.304688 383.777344 236.304688 Z M 435.445312 147.40625 C 434.53125 147.40625 433.8125 148.125 433.8125 149.039062 L 433.8125 158.773438 C 433.8125 159.6875 434.53125 160.40625 435.445312 160.40625 C 436.359375 160.40625 437.078125 159.6875 437.078125 158.773438 L 437.078125 149.039062 C 437.078125 148.125 436.359375 147.40625 435.445312 147.40625 Z M 435.445312 121.476562 C 434.53125 121.476562 433.8125 122.191406 433.8125 123.109375 L 433.8125 132.839844 C 433.8125 133.753906 434.53125 134.472656 435.445312 134.472656 C 436.359375 134.472656 437.078125 133.753906 437.078125 132.839844 L 437.078125 123.109375 C 437.078125 122.191406 436.359375 121.476562 435.445312 121.476562 Z M 306.113281 236.304688 L 296.382812 236.304688 C 295.46875 236.304688 294.75 237.023438 294.75 237.9375 C 294.75 238.851562 295.46875 239.570312 296.382812 239.570312 L 306.113281 239.570312 C 307.027344 239.570312 307.746094 238.851562 307.746094 237.9375 C 307.746094 237.023438 306.964844 236.304688 306.113281 236.304688 Z M 280.183594 236.304688 L 270.449219 236.304688 C 269.535156 236.304688 268.816406 237.023438 268.816406 237.9375 C 268.816406 238.851562 269.535156 239.570312 270.449219 239.570312 L 280.183594 239.570312 C 281.097656 239.570312 281.816406 238.851562 281.816406 237.9375 C 281.816406 237.023438 281.097656 236.304688 280.183594 236.304688 Z M 298.015625 1.8125 C 298.015625 0.894531 297.296875 0.179688 296.382812 0.179688 L 286.648438 0.179688 C 285.734375 0.179688 285.015625 0.894531 285.015625 1.8125 C 285.015625 2.726562 285.734375 3.445312 286.648438 3.445312 L 296.382812 3.445312 C 297.296875 3.445312 298.015625 2.726562 298.015625 1.8125 Z M 375.746094 1.8125 C 375.746094 0.894531 375.027344 0.179688 374.113281 0.179688 L 364.378906 0.179688 C 363.464844 0.179688 362.746094 0.894531 362.746094 1.8125 C 362.746094 2.726562 363.464844 3.445312 364.378906 3.445312 L 374.113281 3.445312 C 375.027344 3.445312 375.746094 2.726562 375.746094 1.8125 Z M 254.25 236.304688 L 244.519531 236.304688 C 243.605469 236.304688 242.886719 237.023438 242.886719 237.9375 C 242.886719 238.851562 243.605469 239.570312 244.519531 239.570312 L 254.25 239.570312 C 255.167969 239.570312 255.882812 238.851562 255.882812 237.9375 C 255.882812 237.023438 255.167969 236.304688 254.25 236.304688 Z M 246.21875 1.8125 C 246.21875 0.894531 245.5 0.179688 244.585938 0.179688 L 234.851562 0.179688 C 233.9375 0.179688 233.21875 0.894531 233.21875 1.8125 C 233.21875 2.726562 233.9375 3.445312 234.851562 3.445312 L 244.585938 3.445312 C 245.5 3.445312 246.21875 2.726562 246.21875 1.8125 Z M 272.082031 1.8125 C 272.082031 0.894531 271.367188 0.179688 270.449219 0.179688 L 260.71875 0.179688 C 259.804688 0.179688 259.085938 0.894531 259.085938 1.8125 C 259.085938 2.726562 259.804688 3.445312 260.71875 3.445312 L 270.449219 3.445312 C 271.367188 3.445312 272.082031 2.726562 272.082031 1.8125 Z M 349.8125 1.8125 C 349.8125 0.894531 349.09375 0.179688 348.179688 0.179688 L 338.449219 0.179688 C 337.53125 0.179688 336.816406 0.894531 336.816406 1.8125 C 336.816406 2.726562 337.53125 3.445312 338.449219 3.445312 L 348.179688 3.445312 C 349.09375 3.445312 349.8125 2.726562 349.8125 1.8125 Z M 357.914062 236.304688 L 348.179688 236.304688 C 347.265625 236.304688 346.546875 237.023438 346.546875 237.9375 C 346.546875 238.851562 347.265625 239.570312 348.179688 239.570312 L 357.914062 239.570312 C 358.828125 239.570312 359.546875 238.851562 359.546875 237.9375 C 359.546875 237.023438 358.828125 236.304688 357.914062 236.304688 Z M 323.945312 1.8125 C 323.945312 0.894531 323.226562 0.179688 322.3125 0.179688 L 312.582031 0.179688 C 311.667969 0.179688 310.949219 0.894531 310.949219 1.8125 C 310.949219 2.726562 311.667969 3.445312 312.582031 3.445312 L 322.3125 3.445312 C 323.226562 3.445312 323.945312 2.726562 323.945312 1.8125 Z M 331.980469 236.304688 L 322.25 236.304688 C 321.335938 236.304688 320.617188 237.023438 320.617188 237.9375 C 320.617188 238.851562 321.335938 239.570312 322.25 239.570312 L 331.980469 239.570312 C 332.894531 239.570312 333.613281 238.851562 333.613281 237.9375 C 333.613281 237.023438 332.894531 236.304688 331.980469 236.304688 Z M 228.386719 236.304688 L 218.652344 236.304688 C 217.738281 236.304688 217.019531 237.023438 217.019531 237.9375 C 217.019531 238.851562 217.738281 239.570312 218.652344 239.570312 L 228.386719 239.570312 C 229.300781 239.570312 230.019531 238.851562 230.019531 237.9375 C 230.019531 237.023438 229.300781 236.304688 228.386719 236.304688 Z M 228.386719 236.304688 " fill-opacity="1" fill-rule="nonzero"/></g></svg>