<svg xmlns="http://www.w3.org/2000/svg" xmlns:xlink="http://www.w3.org/1999/xlink" width="261" zoomAndPan="magnify" viewBox="0 0 195.75 144.749998" height="193" preserveAspectRatio="xMidYMid meet" version="1.0"><defs><clipPath id="4687b94f74"><path d="M 97.640625 76.746094 L 125 76.746094 L 125 101.453125 L 97.640625 101.453125 Z M 97.640625 76.746094 " clip-rule="nonzero"/></clipPath><clipPath id="5893e0a301"><path d="M 0.0429688 0 L 195.234375 0 L 195.234375 143.75 L 0.0429688 143.75 Z M 0.0429688 0 " clip-rule="nonzero"/></clipPath></defs><g clip-path="url(#4687b94f74)"><path fill="#01c6f7" d="M 111.832031 76.964844 C 111.859375 76.75 112.167969 76.746094 112.140625 76.960938 C 112.09375 77.355469 112.09375 77.75 112.066406 78.144531 C 112.035156 78.539062 111.988281 78.929688 111.976562 79.328125 C 111.96875 79.71875 111.980469 80.117188 111.992188 80.511719 C 112 80.730469 111.65625 80.730469 111.648438 80.511719 C 111.636719 80.117188 111.632812 79.71875 111.640625 79.328125 C 111.648438 78.929688 111.664062 78.535156 111.695312 78.140625 C 111.722656 77.75 111.773438 77.355469 111.824219 76.964844 C 111.824219 76.960938 111.832031 76.964844 111.832031 76.964844 Z M 111.207031 98.855469 C 111.207031 99.25 111.207031 99.644531 111.203125 100.039062 C 111.203125 100.433594 111.207031 100.828125 111.207031 101.222656 C 111.207031 101.441406 111.539062 101.441406 111.539062 101.222656 C 111.539062 100.828125 111.539062 100.433594 111.539062 100.039062 C 111.542969 99.644531 111.535156 99.25 111.535156 98.855469 C 111.535156 98.636719 111.210938 98.636719 111.210938 98.855469 C 111.210938 98.855469 111.207031 98.851562 111.207031 98.855469 Z M 100.726562 88.613281 C 100.257812 88.613281 99.792969 88.628906 99.324219 88.628906 C 98.855469 88.628906 98.386719 88.632812 97.917969 88.632812 C 97.699219 88.632812 97.699219 88.953125 97.917969 88.953125 C 98.386719 88.953125 98.855469 88.957031 99.324219 88.957031 C 99.792969 88.957031 100.257812 88.953125 100.726562 88.953125 C 100.945312 88.953125 100.945312 88.628906 100.726562 88.628906 C 100.722656 88.628906 100.730469 88.613281 100.726562 88.613281 Z M 124.691406 89.210938 C 124.324219 89.238281 123.953125 89.273438 123.585938 89.304688 C 123.214844 89.332031 122.847656 89.359375 122.476562 89.390625 C 122.261719 89.40625 122.257812 89.746094 122.476562 89.726562 C 122.847656 89.699219 123.214844 89.675781 123.585938 89.644531 C 123.953125 89.617188 124.324219 89.585938 124.695312 89.558594 C 124.910156 89.539062 124.910156 89.199219 124.691406 89.214844 C 124.691406 89.214844 124.695312 89.210938 124.691406 89.210938 Z M 121.015625 81.269531 C 120.695312 81.566406 120.367188 81.855469 120.046875 82.152344 C 119.726562 82.445312 119.402344 82.742188 119.085938 83.039062 C 118.921875 83.1875 119.164062 83.425781 119.324219 83.277344 C 119.644531 82.980469 119.972656 82.695312 120.292969 82.398438 C 120.613281 82.105469 120.933594 81.804688 121.253906 81.507812 C 121.414062 81.359375 121.171875 81.117188 121.011719 81.265625 C 121.011719 81.269531 121.015625 81.269531 121.015625 81.269531 Z M 104.363281 95.1875 C 103.988281 95.476562 103.609375 95.765625 103.246094 96.066406 C 102.878906 96.367188 102.515625 96.667969 102.140625 96.957031 C 102.066406 97.011719 102.039062 97.105469 102.085938 97.191406 C 102.128906 97.265625 102.242188 97.3125 102.316406 97.253906 C 102.691406 96.964844 103.058594 96.667969 103.425781 96.367188 C 103.789062 96.066406 104.152344 95.761719 104.527344 95.472656 C 104.601562 95.417969 104.636719 95.328125 104.589844 95.242188 C 104.546875 95.167969 104.429688 95.125 104.355469 95.179688 C 104.355469 95.179688 104.367188 95.1875 104.363281 95.1875 Z M 105.128906 82.027344 C 104.832031 81.707031 104.546875 81.375 104.25 81.058594 C 103.953125 80.738281 103.660156 80.414062 103.363281 80.09375 C 103.214844 79.933594 102.96875 80.179688 103.117188 80.339844 C 103.414062 80.660156 103.707031 80.984375 104.003906 81.304688 C 104.300781 81.625 104.597656 81.941406 104.894531 82.261719 C 105.042969 82.421875 105.277344 82.1875 105.128906 82.027344 C 105.128906 82.027344 105.128906 82.03125 105.128906 82.027344 Z M 120.117188 97.285156 C 119.867188 96.964844 119.617188 96.648438 119.371094 96.324219 C 119.125 96.003906 118.886719 95.675781 118.640625 95.355469 C 118.585938 95.28125 118.488281 95.253906 118.402344 95.304688 C 118.332031 95.347656 118.277344 95.464844 118.335938 95.539062 C 118.582031 95.859375 118.835938 96.171875 119.082031 96.492188 C 119.328125 96.8125 119.574219 97.136719 119.820312 97.457031 C 119.875 97.527344 119.964844 97.566406 120.050781 97.515625 C 120.121094 97.472656 120.175781 97.355469 120.121094 97.28125 C 120.117188 97.277344 120.117188 97.285156 120.117188 97.285156 Z M 116.863281 79.839844 C 116.519531 80.285156 116.1875 80.742188 115.84375 81.1875 C 115.789062 81.257812 115.828125 81.375 115.898438 81.417969 C 115.988281 81.46875 116.074219 81.421875 116.128906 81.351562 C 116.472656 80.90625 116.820312 80.464844 117.164062 80.019531 C 117.21875 79.945312 117.171875 79.832031 117.097656 79.789062 C 117.011719 79.738281 116.921875 79.769531 116.863281 79.84375 C 116.863281 79.84375 116.863281 79.839844 116.863281 79.839844 Z M 122.679688 85.382812 C 122.28125 85.625 121.890625 85.878906 121.492188 86.121094 C 121.414062 86.167969 121.382812 86.269531 121.429688 86.351562 C 121.472656 86.429688 121.582031 86.457031 121.660156 86.410156 C 122.058594 86.167969 122.457031 85.925781 122.851562 85.679688 C 122.929688 85.632812 122.957031 85.53125 122.910156 85.449219 C 122.867188 85.371094 122.753906 85.335938 122.675781 85.382812 C 122.675781 85.382812 122.679688 85.382812 122.679688 85.382812 Z M 101.820312 92.1875 C 101.332031 92.445312 100.847656 92.707031 100.355469 92.960938 C 100.164062 93.0625 100.332031 93.351562 100.527344 93.25 C 101.015625 92.996094 101.503906 92.742188 101.996094 92.488281 C 102.1875 92.386719 102.015625 92.089844 101.820312 92.191406 C 101.820312 92.191406 101.820312 92.1875 101.820312 92.1875 Z M 107.578125 97.777344 C 107.386719 98.046875 107.195312 98.316406 107.003906 98.582031 C 106.953125 98.652344 106.984375 98.769531 107.0625 98.8125 C 107.148438 98.859375 107.238281 98.828125 107.292969 98.75 C 107.488281 98.484375 107.675781 98.214844 107.867188 97.949219 C 107.917969 97.875 107.882812 97.757812 107.808594 97.71875 C 107.71875 97.671875 107.632812 97.703125 107.578125 97.78125 C 107.578125 97.78125 107.578125 97.777344 107.578125 97.777344 Z M 101.402344 84.667969 C 101.773438 84.992188 102.191406 85.242188 102.652344 85.417969 C 102.738281 85.449219 102.835938 85.378906 102.859375 85.296875 C 102.886719 85.203125 102.828125 85.121094 102.742188 85.085938 C 102.351562 84.9375 101.957031 84.710938 101.636719 84.4375 C 101.566406 84.375 101.464844 84.367188 101.398438 84.433594 C 101.335938 84.496094 101.332031 84.609375 101.402344 84.671875 C 101.402344 84.671875 101.402344 84.667969 101.402344 84.667969 Z M 122.378906 93.742188 C 121.929688 93.554688 121.503906 93.304688 121.109375 93.019531 C 121.035156 92.964844 120.921875 93.007812 120.878906 93.082031 C 120.828125 93.167969 120.859375 93.261719 120.933594 93.316406 C 121.355469 93.621094 121.808594 93.871094 122.289062 94.074219 C 122.371094 94.109375 122.476562 94.035156 122.5 93.953125 C 122.527344 93.855469 122.460938 93.785156 122.375 93.75 C 122.375 93.75 122.382812 93.746094 122.378906 93.742188 Z M 116.371094 98.8125 C 116.25 98.339844 116.046875 97.886719 115.78125 97.480469 C 115.730469 97.402344 115.632812 97.371094 115.550781 97.417969 C 115.472656 97.464844 115.433594 97.578125 115.484375 97.652344 C 115.734375 98.039062 115.925781 98.457031 116.039062 98.902344 C 116.09375 99.113281 116.425781 99.023438 116.371094 98.8125 C 116.371094 98.808594 116.371094 98.816406 116.371094 98.8125 Z M 107.851562 78.980469 C 107.980469 79.546875 108.183594 80.09375 108.464844 80.601562 C 108.570312 80.792969 108.867188 80.621094 108.761719 80.429688 C 108.492188 79.945312 108.300781 79.429688 108.179688 78.890625 C 108.128906 78.679688 107.796875 78.769531 107.847656 78.980469 C 107.847656 78.984375 107.851562 78.980469 107.851562 78.980469 Z M 107.851562 78.980469 " fill-opacity="1" fill-rule="nonzero"/></g><path fill="#01c6f7" d="M 123.90625 65.175781 C 123.914062 65.175781 123.917969 65.175781 123.921875 65.175781 C 124.464844 65.167969 124.898438 64.722656 124.890625 64.179688 C 124.882812 63.636719 124.429688 63.203125 123.894531 63.210938 C 123.894531 63.210938 123.890625 63.210938 123.886719 63.210938 C 123.222656 63.210938 108.738281 62.789062 100.945312 62.5625 C 95.800781 62.414062 95.007812 62.390625 94.953125 62.390625 C 94.410156 62.390625 93.972656 62.832031 93.972656 63.371094 C 93.972656 63.914062 94.410156 64.351562 94.953125 64.351562 C 94.953125 64.351562 94.953125 64.351562 94.957031 64.351562 C 95.066406 64.355469 97.632812 64.429688 100.886719 64.523438 C 112.179688 64.855469 123.246094 65.175781 123.90625 65.175781 " fill-opacity="1" fill-rule="nonzero"/><path fill="#01c6f7" d="M 124.234375 77.820312 C 124.757812 77.820312 125.191406 77.410156 125.214844 76.882812 C 125.242188 76.34375 124.820312 75.882812 124.28125 75.859375 C 121.292969 75.71875 94.730469 74.605469 93.992188 74.605469 C 93.988281 74.605469 93.984375 74.605469 93.984375 74.605469 C 93.441406 74.621094 93.015625 75.074219 93.03125 75.617188 C 93.046875 76.160156 93.507812 76.582031 94.039062 76.570312 C 94.691406 76.574219 119.789062 77.617188 124.191406 77.820312 C 124.207031 77.820312 124.222656 77.820312 124.234375 77.820312 " fill-opacity="1" fill-rule="nonzero"/><path fill="#01c6f7" d="M 124.238281 89.8125 C 124.753906 89.8125 125.1875 89.40625 125.214844 88.882812 C 125.246094 88.339844 124.828125 87.878906 124.289062 87.847656 C 117.710938 87.496094 110.242188 87.289062 103.023438 87.09375 C 98.464844 86.96875 94.160156 86.851562 90.164062 86.699219 C 89.632812 86.679688 89.167969 87.101562 89.144531 87.644531 C 89.125 88.183594 89.546875 88.640625 90.089844 88.660156 C 94.097656 88.8125 98.40625 88.929688 102.96875 89.054688 C 110.175781 89.253906 117.628906 89.457031 124.183594 89.808594 C 124.199219 89.808594 124.21875 89.8125 124.238281 89.8125 " fill-opacity="1" fill-rule="nonzero"/><path fill="#01c6f7" d="M 123.417969 113.101562 C 123.945312 113.101562 124.382812 112.679688 124.398438 112.148438 C 124.414062 111.605469 123.988281 111.152344 123.445312 111.136719 C 123.324219 111.132812 111.253906 110.777344 104.988281 110.777344 C 104.445312 110.777344 104.003906 111.214844 104.003906 111.757812 C 104.003906 112.300781 104.445312 112.738281 104.988281 112.738281 C 111.226562 112.738281 123.265625 113.097656 123.386719 113.101562 C 123.398438 113.101562 123.40625 113.101562 123.417969 113.101562 " fill-opacity="1" fill-rule="nonzero"/><path fill="#01c6f7" d="M 94.953125 112.613281 C 95.484375 112.613281 95.921875 112.1875 95.933594 111.652344 C 95.945312 111.113281 95.519531 110.664062 94.976562 110.648438 C 94.753906 110.644531 72.789062 110.140625 63.734375 109.882812 C 63.726562 109.882812 63.71875 109.882812 63.707031 109.882812 C 63.179688 109.882812 62.742188 110.304688 62.726562 110.835938 C 62.710938 111.378906 63.136719 111.832031 63.679688 111.847656 C 72.738281 112.101562 94.710938 112.605469 94.929688 112.613281 C 94.9375 112.613281 94.945312 112.613281 94.953125 112.613281 " fill-opacity="1" fill-rule="nonzero"/><path fill="#01c6f7" d="M 123.910156 101.238281 C 124.421875 101.238281 124.851562 100.839844 124.886719 100.324219 C 124.925781 99.78125 124.515625 99.3125 123.976562 99.277344 C 123.910156 99.273438 64.191406 98.78125 63.695312 98.78125 L 63.382812 98.78125 C 62.839844 98.78125 62.398438 99.222656 62.398438 99.761719 C 62.398438 100.304688 62.839844 100.746094 63.382812 100.746094 L 63.695312 100.746094 C 64.582031 100.75 123.265625 101.230469 123.886719 101.238281 C 123.894531 101.238281 123.902344 101.238281 123.910156 101.238281 " fill-opacity="1" fill-rule="nonzero"/><path fill="#01c6f7" d="M 168.632812 33.8125 C 170.558594 33.8125 172.125 35.273438 172.125 37.066406 C 172.125 38.804688 170.78125 40.664062 168.78125 40.664062 C 166.871094 40.664062 164.929688 38.847656 164.929688 37.066406 C 164.929688 35.332031 166.660156 33.8125 168.632812 33.8125 Z M 168.78125 42.628906 C 171.65625 42.628906 174.085938 40.082031 174.085938 37.066406 C 174.085938 34.191406 171.640625 31.851562 168.632812 31.851562 C 165.5625 31.851562 162.964844 34.238281 162.964844 37.066406 C 162.964844 39.925781 165.792969 42.628906 168.78125 42.628906 " fill-opacity="1" fill-rule="nonzero"/><path fill="#01c6f7" d="M 152.601562 33.8125 C 153.1875 33.8125 153.789062 33.941406 154.34375 34.210938 C 156.070312 35.0625 156.832031 37.0625 156.039062 38.671875 C 155.273438 40.230469 153.246094 41.308594 151.449219 40.425781 C 149.738281 39.582031 148.792969 37.09375 149.582031 35.496094 C 150.105469 34.429688 151.320312 33.8125 152.601562 33.8125 Z M 152.78125 42.691406 C 154.808594 42.691406 156.828125 41.511719 157.800781 39.539062 C 159.070312 36.957031 157.90625 33.777344 155.210938 32.449219 C 152.449219 31.09375 149.066406 32.09375 147.820312 34.628906 C 146.558594 37.195312 147.902344 40.867188 150.585938 42.1875 C 151.28125 42.53125 152.03125 42.691406 152.78125 42.691406 " fill-opacity="1" fill-rule="nonzero"/><path fill="#01c6f7" d="M 136.675781 33.824219 C 137.570312 33.824219 138.511719 34.203125 139.273438 34.871094 C 140.050781 35.558594 140.511719 36.433594 140.542969 37.28125 C 140.605469 39.011719 138.929688 40.59375 136.953125 40.664062 C 136.011719 40.699219 135.121094 40.386719 134.433594 39.785156 C 133.765625 39.195312 133.382812 38.398438 133.351562 37.539062 C 133.289062 35.804688 134.566406 33.898438 136.5625 33.824219 C 136.601562 33.824219 136.640625 33.824219 136.675781 33.824219 Z M 136.816406 42.632812 C 136.886719 42.632812 136.957031 42.628906 137.027344 42.628906 C 140.097656 42.515625 142.605469 40.035156 142.503906 37.210938 C 142.457031 35.828125 141.75 34.441406 140.570312 33.398438 C 139.402344 32.371094 137.910156 31.808594 136.492188 31.863281 C 133.617188 31.964844 131.28125 34.597656 131.390625 37.609375 C 131.4375 39.011719 132.0625 40.308594 133.136719 41.257812 C 134.148438 42.148438 135.449219 42.632812 136.816406 42.632812 " fill-opacity="1" fill-rule="nonzero"/><path fill="#01c6f7" d="M 120.074219 19.699219 C 120.335938 19.699219 120.597656 19.59375 120.789062 19.390625 C 123.480469 16.542969 126.867188 14.117188 130.859375 12.1875 C 131.34375 11.953125 131.550781 11.367188 131.3125 10.878906 C 131.078125 10.390625 130.488281 10.1875 130.003906 10.421875 C 125.796875 12.457031 122.214844 15.019531 119.363281 18.042969 C 118.992188 18.4375 119.007812 19.058594 119.402344 19.429688 C 119.59375 19.609375 119.835938 19.699219 120.074219 19.699219 " fill-opacity="1" fill-rule="nonzero"/><path fill="#01c6f7" d="M 182.574219 55.199219 C 182.855469 55.199219 183.128906 55.078125 183.324219 54.851562 C 187.523438 49.90625 189.566406 44.085938 189.566406 37.054688 C 189.566406 36.511719 189.125 36.070312 188.582031 36.070312 C 188.042969 36.070312 187.601562 36.511719 187.601562 37.054688 C 187.601562 43.601562 185.714844 49.003906 181.828125 53.582031 C 181.476562 53.992188 181.527344 54.613281 181.941406 54.964844 C 182.125 55.121094 182.351562 55.199219 182.574219 55.199219 " fill-opacity="1" fill-rule="nonzero"/><path fill="#01c6f7" d="M 184.738281 22.882812 C 184.90625 22.882812 185.082031 22.835938 185.238281 22.742188 C 185.703125 22.46875 185.855469 21.863281 185.578125 21.398438 C 183.785156 18.375 181.359375 15.695312 178.375 13.429688 C 177.941406 13.101562 177.328125 13.183594 176.996094 13.617188 C 176.667969 14.050781 176.753906 14.664062 177.1875 14.992188 C 179.96875 17.105469 182.226562 19.597656 183.890625 22.402344 C 184.074219 22.710938 184.402344 22.882812 184.738281 22.882812 " fill-opacity="1" fill-rule="nonzero"/><path fill="#01c6f7" d="M 68.289062 127.003906 C 68.714844 127.003906 69.109375 126.726562 69.230469 126.296875 C 69.382812 125.773438 69.082031 125.230469 68.558594 125.082031 C 64.433594 123.890625 61.820312 122.015625 60.332031 119.179688 C 60.082031 118.699219 59.488281 118.515625 59.007812 118.765625 C 58.527344 119.019531 58.339844 119.613281 58.59375 120.09375 C 60.320312 123.390625 63.402344 125.636719 68.015625 126.96875 C 68.105469 126.992188 68.199219 127.003906 68.289062 127.003906 " fill-opacity="1" fill-rule="nonzero"/><path fill="#01c6f7" d="M 120.007812 126.199219 C 120.03125 126.199219 120.054688 126.195312 120.082031 126.195312 C 127.378906 125.65625 131.660156 122.65625 133.550781 116.765625 C 133.71875 116.25 133.433594 115.695312 132.917969 115.53125 C 132.402344 115.363281 131.851562 115.648438 131.683594 116.164062 C 130.019531 121.335938 126.507812 123.75 119.9375 124.238281 C 119.394531 124.277344 118.988281 124.75 119.03125 125.289062 C 119.066406 125.804688 119.496094 126.199219 120.007812 126.199219 " fill-opacity="1" fill-rule="nonzero"/><path fill="#01c6f7" d="M 133.417969 113.867188 C 133.902344 113.867188 134.320312 113.511719 134.390625 113.023438 C 134.617188 111.433594 134.730469 109.648438 134.730469 107.710938 C 134.730469 107.171875 134.292969 106.730469 133.75 106.730469 C 133.207031 106.730469 132.765625 107.171875 132.765625 107.710938 C 132.765625 109.554688 132.660156 111.25 132.445312 112.746094 C 132.371094 113.285156 132.742188 113.78125 133.28125 113.855469 C 133.328125 113.863281 133.375 113.867188 133.417969 113.867188 " fill-opacity="1" fill-rule="nonzero"/><path fill="#01c6f7" d="M 134.214844 63.042969 C 134.730469 63.042969 135.164062 62.640625 135.195312 62.121094 C 135.675781 54.128906 132.453125 48.914062 125.617188 46.625 C 125.101562 46.453125 124.546875 46.730469 124.371094 47.242188 C 124.199219 47.757812 124.476562 48.3125 124.992188 48.484375 C 130.964844 50.488281 133.660156 54.910156 133.234375 62.003906 C 133.203125 62.542969 133.613281 63.007812 134.15625 63.039062 C 134.175781 63.042969 134.195312 63.042969 134.214844 63.042969 " fill-opacity="1" fill-rule="nonzero"/><path fill="#01c6f7" d="M 119.492188 47.175781 C 119.945312 47.175781 120.351562 46.859375 120.453125 46.398438 C 120.566406 45.867188 120.226562 45.347656 119.695312 45.234375 C 117.726562 44.8125 115.792969 44.808594 115.714844 44.808594 C 115.171875 44.808594 114.730469 45.246094 114.730469 45.789062 C 114.730469 46.332031 115.171875 46.769531 115.710938 46.769531 C 115.730469 46.769531 117.527344 46.777344 119.285156 47.152344 C 119.355469 47.167969 119.425781 47.175781 119.492188 47.175781 " fill-opacity="1" fill-rule="nonzero"/><g clip-path="url(#5893e0a301)"><path fill="#01c6f7" d="M 11.226562 89.554688 C 16.988281 95.316406 21.925781 95.195312 45.660156 94.621094 C 50.390625 94.507812 55.753906 94.378906 62.042969 94.273438 C 75.273438 94.273438 82.789062 92.785156 87.164062 89.300781 C 91.492188 85.855469 93.253906 80.203125 93.253906 69.789062 C 93.253906 59.722656 93.421875 51.21875 93.558594 44.382812 C 93.972656 23.5625 94.140625 14.945312 88.894531 9.695312 C 83.773438 4.574219 72.703125 2.484375 50.679688 2.484375 C 24.949219 2.484375 11.597656 4.855469 6.039062 10.414062 C 2.738281 13.710938 2.113281 17.949219 2.113281 24.613281 C 2.113281 63.429688 2.976562 81.304688 11.226562 89.554688 Z M 58.023438 126.800781 C 60.839844 129.621094 64.570312 131.332031 69.753906 132.1875 C 70.105469 132.246094 70.398438 132.488281 70.519531 132.824219 C 70.542969 132.886719 71.0625 134.375 70.8125 136.449219 C 70.632812 137.925781 70.023438 139.945312 68.269531 141.960938 C 78.039062 141.589844 83.894531 132.480469 83.957031 132.382812 C 84.132812 132.101562 84.4375 131.925781 84.773438 131.921875 L 108.839844 131.523438 C 122.070312 131.523438 129.582031 130.035156 133.960938 126.546875 C 138.285156 123.101562 140.050781 117.449219 140.050781 107.035156 C 140.050781 96.96875 140.21875 88.464844 140.355469 81.632812 C 140.765625 60.808594 140.9375 52.191406 135.691406 46.945312 C 130.570312 41.824219 119.496094 39.734375 97.476562 39.734375 C 96.84375 39.734375 96.226562 39.734375 95.613281 39.738281 C 95.585938 41.234375 95.554688 42.785156 95.523438 44.421875 C 95.386719 51.246094 95.21875 59.742188 95.21875 69.789062 C 95.21875 90.550781 88.085938 96.238281 62.058594 96.238281 C 57.4375 96.3125 53.3125 96.402344 49.566406 96.492188 C 50.5625 113.1875 52.953125 121.734375 58.023438 126.800781 Z M 162.359375 71.0625 C 162.671875 70.988281 163 71.070312 163.238281 71.285156 C 165.960938 73.730469 170.222656 77.019531 172.222656 78.539062 C 172.695312 76.476562 173.160156 72.519531 173.507812 67.414062 C 173.53125 67.078125 173.722656 66.78125 174.015625 66.617188 C 186.902344 59.5625 193.164062 49.890625 193.164062 37.054688 C 193.164062 12.808594 172.617188 1.957031 152.253906 1.957031 C 138.070312 1.957031 124.792969 7.046875 116.746094 15.574219 C 110.964844 21.695312 108.089844 29.429688 108.40625 37.980469 C 124.070312 38.636719 132.453125 40.933594 137.078125 45.558594 C 141.914062 50.390625 142.621094 57.304688 142.484375 71.683594 C 149.011719 72.804688 155.863281 72.59375 162.359375 71.0625 Z M 4.652344 9.027344 C 10.691406 2.984375 24.027344 0.523438 50.679688 0.523438 C 73.578125 0.523438 84.679688 2.703125 90.285156 8.308594 C 95.476562 13.5 95.910156 21.09375 95.644531 37.777344 C 96.25 37.773438 96.855469 37.769531 97.476562 37.769531 C 100.695312 37.769531 103.671875 37.816406 106.441406 37.90625 C 106.140625 28.875 109.199219 20.703125 115.320312 14.222656 C 123.730469 5.3125 137.539062 -0.0078125 152.253906 -0.0078125 C 163.617188 -0.0078125 174.089844 3.191406 181.738281 9 C 190.496094 15.652344 195.128906 25.351562 195.128906 37.054688 C 195.128906 50.515625 188.679688 60.667969 175.429688 68.082031 C 175.089844 72.84375 174.515625 78.671875 173.636719 80.574219 C 173.511719 80.84375 173.273438 81.042969 172.988281 81.113281 C 172.90625 81.136719 172.824219 81.144531 172.746094 81.144531 C 172.535156 81.144531 172.328125 81.078125 172.15625 80.949219 C 171.902344 80.757812 166.050781 76.382812 162.3125 73.089844 C 155.8125 74.550781 148.984375 74.75 142.460938 73.671875 C 142.425781 76.128906 142.375 78.78125 142.316406 81.671875 C 142.183594 88.496094 142.015625 96.988281 142.015625 107.035156 C 142.015625 127.800781 134.882812 133.484375 108.855469 133.484375 L 85.320312 133.875 C 83.902344 135.914062 77.699219 143.9375 67.71875 143.9375 C 67.097656 143.9375 66.460938 143.90625 65.808594 143.839844 C 65.414062 143.800781 65.078125 143.523438 64.964844 143.140625 C 64.851562 142.761719 64.980469 142.347656 65.292969 142.097656 C 69.28125 138.890625 69.0625 135.335938 68.804688 134.015625 C 63.515625 133.054688 59.640625 131.195312 56.632812 128.191406 C 51.179688 122.738281 48.628906 113.816406 47.601562 96.539062 C 46.960938 96.554688 46.328125 96.570312 45.707031 96.585938 C 39.878906 96.726562 35.140625 96.839844 31.207031 96.839844 C 19.050781 96.839844 14.640625 95.746094 9.839844 90.941406 C 1.066406 82.171875 0.152344 63.996094 0.152344 24.613281 C 0.152344 18.769531 0.496094 13.179688 4.652344 9.027344 " fill-opacity="1" fill-rule="nonzero"/></g><path fill="#01c6f7" d="M 25.863281 59.28125 C 35.285156 60.546875 44.183594 61.75 50.882812 63.78125 C 55.265625 65.113281 60.917969 67.371094 62.214844 71.996094 C 71.847656 52.617188 77.203125 36.28125 77.398438 35.679688 C 78.378906 32.210938 78.84375 29.113281 74.613281 26.332031 C 69.835938 23.195312 52.734375 19.53125 40.292969 18.265625 C 36.640625 24.378906 21.46875 52.042969 18.09375 58.207031 C 20.6875 58.582031 23.3125 58.9375 25.863281 59.28125 Z M 21.296875 68.398438 C 21.097656 69.96875 20.507812 71.320312 19.597656 72.363281 C 26.796875 73.949219 36.800781 75.902344 45.496094 77.417969 C 46.210938 74.964844 47.175781 72.554688 48.058594 70.871094 C 47.550781 70.828125 47.042969 70.804688 46.53125 70.804688 C 45.992188 70.804688 45.546875 70.363281 45.546875 69.824219 C 45.546875 69.28125 45.992188 68.839844 46.53125 68.839844 C 49.6875 68.839844 52.792969 69.613281 55.792969 71.144531 C 55.792969 71.144531 55.792969 71.144531 55.796875 71.144531 C 55.796875 71.144531 55.796875 71.148438 55.800781 71.148438 C 56.535156 71.523438 57.265625 71.941406 57.984375 72.402344 C 58.4375 72.699219 58.570312 73.308594 58.273438 73.761719 C 58.089844 74.054688 57.773438 74.214844 57.453125 74.214844 C 57.269531 74.214844 57.085938 74.160156 56.921875 74.058594 C 56.582031 73.835938 56.242188 73.632812 55.902344 73.433594 C 55.144531 75.269531 54.511719 76.960938 54.003906 78.664062 C 56.460938 78.757812 58.242188 78.324219 59.296875 77.363281 C 59.457031 77.21875 59.59375 77.058594 59.722656 76.890625 C 59.902344 76.542969 60.082031 76.195312 60.261719 75.851562 C 60.433594 75.324219 60.527344 74.722656 60.527344 74.027344 C 60.527344 65.925781 43.5625 63.640625 25.597656 61.226562 C 23.441406 60.9375 21.230469 60.636719 19.027344 60.324219 C 20.8125 62.808594 21.648438 65.6875 21.296875 68.398438 Z M 46.492188 84.605469 C 47.054688 84.25 47.519531 84.011719 48.304688 83.621094 C 48.683594 83.429688 49.144531 83.507812 49.441406 83.8125 C 49.707031 84.085938 50.007812 84.402344 50.320312 84.734375 C 50.441406 84.863281 50.5625 84.992188 50.6875 85.125 C 51.207031 80.464844 52.351562 76.882812 54.148438 72.523438 C 52.820312 71.90625 51.488281 71.460938 50.128906 71.175781 C 48.558594 73.847656 46.402344 79.875 46.402344 83.496094 C 46.402344 83.890625 46.433594 84.265625 46.492188 84.605469 Z M 15.578125 58.933594 C 15.578125 58.90625 15.578125 58.878906 15.582031 58.851562 L 15.582031 58.835938 C 15.582031 58.832031 15.585938 58.828125 15.585938 58.828125 C 15.589844 58.792969 15.601562 58.761719 15.609375 58.730469 C 15.613281 58.707031 15.613281 58.6875 15.621094 58.667969 C 15.625 58.667969 15.628906 58.660156 15.628906 58.65625 C 15.632812 58.648438 15.632812 58.648438 15.636719 58.640625 C 15.644531 58.609375 15.660156 58.582031 15.675781 58.550781 C 15.691406 58.523438 15.699219 58.492188 15.714844 58.464844 L 15.734375 58.449219 C 17.328125 55.339844 36.328125 20.945312 38.9375 16.710938 C 38.953125 16.691406 38.96875 16.675781 38.984375 16.65625 C 39 16.632812 39.019531 16.609375 39.039062 16.585938 C 39.0625 16.554688 39.09375 16.527344 39.121094 16.5 C 39.140625 16.488281 39.152344 16.472656 39.167969 16.460938 C 39.203125 16.433594 39.242188 16.410156 39.28125 16.386719 C 39.296875 16.375 39.308594 16.371094 39.324219 16.359375 C 39.367188 16.339844 39.410156 16.320312 39.453125 16.304688 C 39.46875 16.300781 39.484375 16.292969 39.503906 16.289062 C 39.542969 16.277344 39.589844 16.269531 39.636719 16.261719 C 39.65625 16.257812 39.671875 16.253906 39.691406 16.253906 C 39.734375 16.25 39.773438 16.253906 39.816406 16.253906 C 39.835938 16.253906 39.851562 16.25 39.871094 16.253906 C 52.613281 17.484375 70.457031 21.253906 75.691406 24.691406 C 81.03125 28.199219 80.34375 32.488281 79.28125 36.234375 C 79.28125 36.242188 79.277344 36.253906 79.273438 36.265625 C 79.210938 36.457031 73.101562 55.25 62.0625 76.644531 C 61.746094 77.496094 61.269531 78.222656 60.617188 78.816406 C 59.28125 80.027344 57.269531 80.636719 54.609375 80.636719 C 54.242188 80.636719 53.863281 80.621094 53.472656 80.601562 C 52.964844 82.675781 52.628906 84.84375 52.460938 87.367188 C 52.433594 87.738281 52.199219 88.066406 51.851562 88.210938 C 51.730469 88.257812 51.605469 88.28125 51.480469 88.28125 C 51.246094 88.28125 51.011719 88.199219 50.828125 88.035156 C 50.238281 87.507812 49.554688 86.785156 48.890625 86.078125 C 48.769531 85.953125 48.652344 85.824219 48.535156 85.703125 C 47.84375 86.0625 47.410156 86.328125 46.492188 86.953125 C 46.253906 87.113281 45.957031 87.164062 45.679688 87.089844 C 45.40625 87.011719 45.171875 86.820312 45.050781 86.558594 C 44.644531 85.691406 44.4375 84.664062 44.4375 83.496094 C 44.4375 82.277344 44.652344 80.824219 45 79.320312 C 35.488281 77.664062 24.445312 75.488281 17.195312 73.835938 C 17.1875 73.835938 17.183594 73.835938 17.175781 73.832031 C 17.15625 73.828125 17.136719 73.816406 17.117188 73.8125 C 17.0625 73.796875 17.007812 73.773438 16.953125 73.742188 C 16.933594 73.734375 16.914062 73.722656 16.894531 73.710938 C 16.839844 73.675781 16.785156 73.632812 16.742188 73.59375 C 16.730469 73.582031 16.71875 73.574219 16.707031 73.5625 C 16.652344 73.503906 16.605469 73.441406 16.566406 73.371094 C 16.5625 73.367188 16.558594 73.359375 16.554688 73.351562 C 16.542969 73.335938 16.542969 73.320312 16.53125 73.300781 C 16.515625 73.269531 16.5 73.234375 16.488281 73.199219 C 16.480469 73.171875 16.472656 73.144531 16.464844 73.113281 C 16.457031 73.082031 16.449219 73.050781 16.441406 73.015625 C 16.441406 72.984375 16.441406 72.953125 16.4375 72.921875 C 16.4375 72.890625 16.433594 72.859375 16.4375 72.828125 C 16.441406 72.792969 16.441406 72.757812 16.449219 72.726562 C 16.453125 72.707031 16.453125 72.6875 16.457031 72.664062 C 16.460938 72.652344 16.464844 72.644531 16.464844 72.636719 C 16.476562 72.605469 16.484375 72.570312 16.5 72.539062 C 16.507812 72.507812 16.519531 72.480469 16.53125 72.453125 C 16.546875 72.425781 16.5625 72.398438 16.585938 72.367188 C 16.597656 72.34375 16.613281 72.316406 16.628906 72.292969 C 16.652344 72.261719 16.675781 72.242188 16.699219 72.214844 C 16.71875 72.195312 16.738281 72.171875 16.757812 72.152344 C 16.785156 72.128906 16.8125 72.109375 16.839844 72.089844 C 16.863281 72.074219 16.886719 72.054688 16.914062 72.039062 C 16.921875 72.035156 16.929688 72.027344 16.941406 72.023438 C 18.269531 71.289062 19.125 69.914062 19.351562 68.152344 C 19.71875 65.308594 18.386719 62.066406 15.878906 59.691406 C 15.863281 59.675781 15.851562 59.65625 15.835938 59.640625 C 15.835938 59.640625 15.835938 59.636719 15.832031 59.636719 C 15.8125 59.613281 15.789062 59.59375 15.773438 59.570312 C 15.765625 59.566406 15.761719 59.558594 15.757812 59.554688 C 15.742188 59.53125 15.730469 59.503906 15.714844 59.476562 C 15.699219 59.457031 15.683594 59.433594 15.675781 59.414062 C 15.671875 59.402344 15.667969 59.394531 15.664062 59.386719 C 15.652344 59.359375 15.640625 59.335938 15.632812 59.308594 C 15.625 59.28125 15.613281 59.257812 15.605469 59.234375 C 15.605469 59.226562 15.601562 59.214844 15.601562 59.207031 C 15.59375 59.179688 15.59375 59.152344 15.589844 59.125 C 15.582031 59.097656 15.578125 59.070312 15.578125 59.046875 L 15.578125 59.019531 C 15.574219 58.992188 15.578125 58.964844 15.578125 58.933594 " fill-opacity="1" fill-rule="nonzero"/><path fill="#01c6f7" d="M 44.339844 52.855469 C 44.476562 52.925781 44.625 52.957031 44.769531 52.957031 C 45.132812 52.957031 45.484375 52.753906 45.652344 52.40625 C 48.226562 47.15625 50.683594 41.769531 53.066406 36.429688 C 55.144531 37.28125 57.289062 38.164062 59.460938 38.871094 C 59.5625 38.90625 59.667969 38.921875 59.765625 38.921875 C 60.179688 38.921875 60.5625 38.660156 60.699219 38.246094 C 60.867188 37.730469 60.589844 37.175781 60.070312 37.007812 C 57.988281 36.324219 55.898438 35.46875 53.867188 34.636719 C 54.707031 32.742188 55.539062 30.855469 56.363281 28.984375 L 56.636719 28.367188 C 56.855469 27.871094 56.632812 27.289062 56.136719 27.074219 C 55.640625 26.855469 55.058594 27.078125 54.839844 27.574219 L 54.570312 28.195312 C 53.738281 30.082031 52.898438 31.980469 52.050781 33.894531 C 49.796875 32.980469 47.488281 32.09375 45.128906 31.453125 C 44.605469 31.308594 44.066406 31.617188 43.925781 32.140625 C 43.78125 32.664062 44.089844 33.203125 44.613281 33.347656 C 46.851562 33.957031 49.070312 34.804688 51.246094 35.6875 C 48.882812 40.992188 46.441406 46.339844 43.890625 51.539062 C 43.652344 52.027344 43.855469 52.617188 44.339844 52.855469 " fill-opacity="1" fill-rule="nonzero"/></svg>