<svg xmlns="http://www.w3.org/2000/svg" xmlns:xlink="http://www.w3.org/1999/xlink" width="301" zoomAndPan="magnify" viewBox="0 0 225.75 203.999996" height="272" preserveAspectRatio="xMidYMid meet" version="1.0"><defs><clipPath id="e387a23f59"><path d="M 50 40 L 175 40 L 175 164.796875 L 50 164.796875 Z M 50 40 " clip-rule="nonzero"/></clipPath><clipPath id="24815636fb"><path d="M 0 0.113281 L 225 0.113281 L 225 203.722656 L 0 203.722656 Z M 0 0.113281 " clip-rule="nonzero"/></clipPath></defs><g clip-path="url(#e387a23f59)"><path fill="#01c6f7" d="M 103.035156 164.410156 C 97.46875 164.410156 94.132812 159.609375 91.375 155.457031 C 89.949219 153.308594 88.335938 150.875 86.902344 150.105469 C 85.601562 149.414062 82.773438 149.433594 80.296875 149.441406 C 75.71875 149.496094 70.535156 149.5 67.089844 145.910156 C 63.648438 142.324219 63.886719 137.148438 64.097656 132.578125 C 64.210938 130.089844 64.339844 127.273438 63.695312 125.949219 C 62.988281 124.484375 60.621094 122.769531 58.53125 121.257812 C 54.898438 118.632812 50.78125 115.648438 50.128906 110.902344 C 49.472656 106.113281 52.65625 102.117188 55.460938 98.585938 C 57.054688 96.585938 58.855469 94.320312 59.132812 92.761719 C 59.402344 91.246094 58.503906 88.527344 57.710938 86.125 C 56.285156 81.816406 54.667969 76.929688 56.980469 72.617188 C 59.207031 68.453125 64.054688 67.101562 68.339844 65.910156 C 70.984375 65.171875 73.71875 64.410156 74.941406 63.234375 C 76.160156 62.066406 77.035156 59.359375 77.875 56.742188 C 79.238281 52.519531 80.785156 47.726562 85.035156 45.667969 C 89.4375 43.53125 94.253906 45.34375 98.503906 46.941406 C 100.867188 47.832031 103.511719 48.835938 105.078125 48.632812 C 106.644531 48.417969 108.984375 46.707031 111.046875 45.199219 C 114.683594 42.535156 118.800781 39.515625 123.566406 40.367188 C 128.285156 41.207031 131.097656 45.441406 133.578125 49.179688 C 135.003906 51.324219 136.617188 53.761719 138.050781 54.527344 C 139.351562 55.222656 142.171875 55.195312 144.65625 55.195312 C 149.242188 55.152344 154.421875 55.136719 157.863281 58.726562 C 161.308594 62.308594 161.070312 67.488281 160.855469 72.058594 C 160.742188 74.542969 160.613281 77.359375 161.257812 78.6875 C 161.964844 80.152344 164.335938 81.863281 166.421875 83.378906 C 170.058594 86.003906 174.175781 88.984375 174.824219 93.730469 C 175.480469 98.519531 172.296875 102.519531 169.492188 106.050781 C 167.902344 108.046875 166.097656 110.316406 165.820312 111.871094 C 165.550781 113.390625 166.449219 116.105469 167.242188 118.507812 C 168.667969 122.816406 170.285156 127.703125 167.976562 132.015625 C 165.746094 136.183594 160.898438 137.535156 156.617188 138.726562 C 153.96875 139.460938 151.234375 140.226562 150.011719 141.398438 C 148.792969 142.570312 147.917969 145.277344 147.078125 147.890625 C 145.714844 152.117188 144.167969 156.910156 139.917969 158.96875 C 135.519531 161.101562 130.699219 159.292969 126.449219 157.695312 C 124.082031 156.800781 121.429688 155.78125 119.875 156 C 118.308594 156.21875 115.972656 157.925781 113.910156 159.4375 C 110.695312 161.789062 107.105469 164.410156 103.035156 164.410156 Z M 81.464844 141.628906 C 84.660156 141.628906 87.882812 141.773438 90.585938 143.222656 C 93.753906 144.917969 95.851562 148.078125 97.882812 151.136719 C 99.417969 153.449219 101.324219 156.324219 102.757812 156.582031 C 104.203125 156.816406 107.039062 154.785156 109.296875 153.132812 C 112.246094 150.980469 115.292969 148.75 118.816406 148.265625 C 122.300781 147.792969 125.804688 149.109375 129.199219 150.386719 C 131.84375 151.378906 135.125 152.609375 136.515625 151.941406 C 137.761719 151.339844 138.804688 148.097656 139.644531 145.492188 C 140.785156 141.960938 141.964844 138.300781 144.605469 135.765625 C 147.246094 133.234375 150.945312 132.199219 154.519531 131.203125 C 157.15625 130.46875 160.4375 129.558594 161.089844 128.332031 C 161.820312 126.972656 160.714844 123.640625 159.828125 120.960938 C 158.691406 117.519531 157.515625 113.960938 158.132812 110.503906 C 158.757812 107.003906 161.105469 104.042969 163.382812 101.1875 C 165.125 98.996094 167.289062 96.273438 167.089844 94.792969 C 166.890625 93.351562 164.09375 91.328125 161.847656 89.703125 C 158.871094 87.550781 155.796875 85.324219 154.230469 82.097656 C 152.722656 78.980469 152.894531 75.28125 153.058594 71.699219 C 153.195312 68.699219 153.351562 65.296875 152.234375 64.132812 C 151.109375 62.964844 147.707031 62.96875 144.703125 63.003906 C 141.121094 63.019531 137.417969 63.050781 134.367188 61.414062 C 131.199219 59.71875 129.101562 56.554688 127.070312 53.5 C 125.535156 51.183594 123.628906 48.308594 122.195312 48.054688 C 120.738281 47.773438 117.914062 49.847656 115.65625 51.5 C 112.710938 53.65625 109.660156 55.886719 106.140625 56.371094 C 102.652344 56.84375 99.148438 55.53125 95.753906 54.25 C 93.113281 53.253906 89.820312 52.023438 88.4375 52.695312 C 87.191406 53.296875 86.148438 56.539062 85.308594 59.140625 C 84.167969 62.675781 82.988281 66.335938 80.347656 68.871094 C 77.710938 71.402344 74.007812 72.433594 70.433594 73.429688 C 67.796875 74.167969 64.515625 75.078125 63.863281 76.300781 C 63.132812 77.664062 64.238281 80.996094 65.125 83.675781 C 66.214844 86.976562 67.011719 90.492188 66.691406 94.054688 C 66.363281 97.679688 63.753906 100.707031 61.570312 103.445312 C 59.832031 105.636719 57.664062 108.359375 57.863281 109.84375 C 58.0625 111.285156 60.859375 113.304688 63.105469 114.933594 C 66.082031 117.082031 69.15625 119.308594 70.722656 122.539062 C 72.230469 125.652344 72.0625 129.355469 71.898438 132.9375 C 71.757812 135.9375 71.601562 139.335938 72.71875 140.503906 C 74.707031 142.566406 78.917969 141.628906 81.464844 141.628906 Z M 81.464844 141.628906 " fill-opacity="1" fill-rule="nonzero"/></g><path fill="#01c6f7" d="M 112.476562 141.355469 C 90.949219 141.355469 73.4375 123.84375 73.4375 102.316406 C 73.4375 80.792969 90.949219 63.277344 112.476562 63.277344 C 134.003906 63.277344 151.515625 80.792969 151.515625 102.316406 C 151.515625 123.84375 134.003906 141.355469 112.476562 141.355469 Z M 112.476562 71.085938 C 95.257812 71.085938 81.246094 85.097656 81.246094 102.316406 C 81.246094 119.539062 95.257812 133.550781 112.476562 133.550781 C 129.699219 133.550781 143.707031 119.539062 143.707031 102.316406 C 143.707031 85.097656 129.699219 71.085938 112.476562 71.085938 Z M 112.476562 71.085938 " fill-opacity="1" fill-rule="nonzero"/><path fill="#01c6f7" d="M 108.574219 117.894531 C 107.570312 117.902344 106.566406 117.542969 105.8125 116.789062 L 94.101562 105.078125 C 92.574219 103.554688 92.574219 101.082031 94.101562 99.558594 C 95.625 98.03125 98.097656 98.03125 99.621094 99.558594 L 108.308594 108.246094 L 125.09375 88.105469 C 126.472656 86.449219 128.9375 86.234375 130.59375 87.605469 C 132.25 88.984375 132.472656 91.449219 131.089844 93.105469 C 131.089844 93.105469 111.59375 116.503906 111.570312 116.53125 C 110.832031 117.417969 109.707031 117.890625 108.574219 117.894531 Z M 108.574219 117.894531 " fill-opacity="1" fill-rule="nonzero"/><g clip-path="url(#24815636fb)"><path fill="#01c6f7" d="M 117.011719 1.925781 C 117.230469 0.160156 119.777344 0.113281 119.558594 1.894531 C 119.15625 5.136719 119.164062 8.410156 118.925781 11.652344 C 118.6875 14.902344 118.28125 18.136719 118.207031 21.394531 C 118.136719 24.644531 118.234375 27.902344 118.335938 31.167969 C 118.394531 32.972656 115.5625 32.964844 115.507812 31.167969 C 115.402344 27.90625 115.351562 24.644531 115.425781 21.398438 C 115.496094 18.140625 115.621094 14.882812 115.863281 11.632812 C 116.101562 8.390625 116.527344 5.15625 116.925781 1.914062 C 116.929688 1.875 117.011719 1.929688 117.011719 1.925781 Z M 111.851562 182.421875 C 111.847656 185.671875 111.839844 188.925781 111.828125 192.179688 C 111.816406 195.433594 111.839844 198.683594 111.839844 201.9375 C 111.839844 203.738281 114.578125 203.742188 114.578125 201.9375 C 114.578125 198.683594 114.59375 195.433594 114.605469 192.179688 C 114.617188 188.925781 114.550781 185.671875 114.550781 182.421875 C 114.550781 180.621094 111.871094 180.617188 111.871094 182.421875 C 111.871094 182.429688 111.851562 182.378906 111.851562 182.421875 Z M 25.449219 97.964844 C 21.585938 97.964844 17.722656 98.105469 13.859375 98.101562 C 10 98.097656 6.136719 98.140625 2.273438 98.140625 C 0.472656 98.140625 0.46875 100.773438 2.273438 100.773438 C 6.136719 100.773438 10 100.804688 13.863281 100.808594 C 17.722656 100.8125 21.585938 100.757812 25.449219 100.757812 C 27.25 100.757812 27.253906 98.09375 25.449219 98.09375 C 25.417969 98.09375 25.480469 97.964844 25.449219 97.964844 Z M 223.046875 102.894531 C 220 103.136719 216.960938 103.429688 213.914062 103.664062 C 210.867188 103.902344 207.816406 104.121094 204.769531 104.363281 C 202.988281 104.507812 202.972656 107.308594 204.769531 107.164062 C 207.816406 106.921875 210.867188 106.71875 213.914062 106.480469 C 216.960938 106.242188 220.007812 105.996094 223.054688 105.753906 C 224.835938 105.609375 224.847656 102.789062 223.050781 102.933594 C 223.050781 102.933594 223.050781 102.890625 223.046875 102.894531 Z M 192.714844 37.417969 C 190.074219 39.859375 187.390625 42.253906 184.742188 44.691406 C 182.097656 47.128906 179.441406 49.550781 176.800781 51.996094 C 175.476562 53.222656 177.460938 55.199219 178.78125 53.976562 C 181.421875 51.53125 184.132812 49.167969 186.777344 46.730469 C 189.425781 44.292969 192.050781 41.835938 194.691406 39.394531 C 196.015625 38.167969 194.011719 36.171875 192.691406 37.390625 C 192.679688 37.402344 192.734375 37.402344 192.714844 37.417969 Z M 55.421875 152.175781 C 52.328125 154.558594 49.21875 156.929688 46.207031 159.410156 C 43.191406 161.894531 40.183594 164.375 37.085938 166.753906 C 36.480469 167.214844 36.25 167.988281 36.65625 168.703125 C 36.992188 169.296875 37.941406 169.679688 38.539062 169.222656 C 41.636719 166.84375 44.667969 164.378906 47.683594 161.898438 C 50.695312 159.414062 53.691406 156.914062 56.785156 154.53125 C 57.390625 154.066406 57.691406 153.339844 57.28125 152.621094 C 56.945312 152.03125 55.964844 151.644531 55.363281 152.105469 C 55.347656 152.121094 55.441406 152.160156 55.421875 152.175781 Z M 61.730469 43.671875 C 59.292969 41.027344 56.941406 38.300781 54.5 35.664062 C 52.054688 33.023438 49.625 30.371094 47.1875 27.730469 C 45.960938 26.402344 43.921875 28.445312 45.144531 29.765625 C 47.585938 32.410156 50.003906 35.070312 52.449219 37.710938 C 54.890625 40.347656 57.363281 42.960938 59.800781 45.605469 C 61.023438 46.929688 62.949219 44.996094 61.726562 43.675781 C 61.726562 43.671875 61.742188 43.683594 61.730469 43.671875 Z M 185.304688 169.460938 C 183.273438 166.816406 181.195312 164.207031 179.160156 161.5625 C 177.128906 158.921875 175.1875 156.207031 173.15625 153.5625 C 172.695312 152.964844 171.886719 152.726562 171.175781 153.140625 C 170.589844 153.488281 170.164062 154.457031 170.628906 155.0625 C 172.660156 157.707031 174.75 160.304688 176.78125 162.945312 C 178.816406 165.589844 180.839844 168.238281 182.875 170.882812 C 183.332031 171.480469 184.050781 171.789062 184.761719 171.375 C 185.351562 171.03125 185.800781 170.035156 185.339844 169.433594 C 185.328125 169.417969 185.308594 169.46875 185.304688 169.460938 Z M 158.488281 25.640625 C 155.65625 29.308594 152.925781 33.054688 150.089844 36.726562 C 149.628906 37.324219 149.945312 38.28125 150.539062 38.628906 C 151.261719 39.050781 151.972656 38.683594 152.433594 38.082031 C 155.269531 34.414062 158.136719 30.769531 160.96875 27.101562 C 161.433594 26.503906 161.027344 25.550781 160.433594 25.203125 C 159.710938 24.78125 158.96875 25.050781 158.503906 25.648438 C 158.496094 25.660156 158.496094 25.632812 158.488281 25.640625 Z M 206.433594 71.34375 C 203.164062 73.34375 199.933594 75.417969 196.664062 77.417969 C 196.019531 77.8125 195.746094 78.648438 196.136719 79.308594 C 196.511719 79.953125 197.40625 80.195312 198.050781 79.796875 C 201.324219 77.796875 204.597656 75.796875 207.871094 73.796875 C 208.511719 73.402344 208.742188 72.550781 208.355469 71.890625 C 207.980469 71.246094 207.074219 70.933594 206.425781 71.328125 C 206.421875 71.335938 206.441406 71.335938 206.433594 71.34375 Z M 34.457031 127.457031 C 30.425781 129.554688 26.421875 131.710938 22.390625 133.8125 C 20.792969 134.640625 22.191406 137.03125 23.789062 136.199219 C 27.820312 134.101562 31.859375 132.011719 35.890625 129.914062 C 37.488281 129.082031 36.066406 126.648438 34.46875 127.480469 C 34.460938 127.484375 34.460938 127.453125 34.457031 127.457031 Z M 81.925781 173.542969 C 80.335938 175.742188 78.785156 177.964844 77.199219 180.160156 C 76.769531 180.753906 77.046875 181.726562 77.667969 182.054688 C 78.394531 182.4375 79.136719 182.195312 79.59375 181.558594 C 81.179688 179.359375 82.722656 177.132812 84.308594 174.933594 C 84.738281 174.339844 84.445312 173.371094 83.820312 173.039062 C 83.09375 172.65625 82.394531 172.917969 81.933594 173.550781 C 81.925781 173.5625 81.929688 173.535156 81.925781 173.542969 Z M 31.003906 65.453125 C 34.078125 68.097656 37.527344 70.175781 41.3125 71.621094 C 42.019531 71.890625 42.84375 71.316406 43.03125 70.636719 C 43.246094 69.851562 42.78125 69.160156 42.070312 68.890625 C 38.824219 67.652344 35.589844 65.804688 32.9375 63.527344 C 32.367188 63.03125 31.535156 62.953125 30.972656 63.515625 C 30.46875 64.019531 30.417969 64.96875 30.996094 65.464844 C 31 65.46875 31 65.449219 31.003906 65.453125 Z M 203.972656 140.261719 C 200.261719 138.699219 196.746094 136.660156 193.492188 134.296875 C 192.878906 133.851562 191.949219 134.203125 191.59375 134.808594 C 191.179688 135.515625 191.445312 136.296875 192.058594 136.742188 C 195.523438 139.257812 199.265625 141.332031 203.210938 142.996094 C 203.910156 143.289062 204.78125 142.660156 204.960938 141.996094 C 205.183594 141.191406 204.640625 140.621094 203.941406 140.324219 C 203.929688 140.320312 204.003906 140.277344 203.972656 140.261719 Z M 154.421875 182.0625 C 153.421875 178.164062 151.765625 174.433594 149.554688 171.074219 C 149.140625 170.441406 148.339844 170.175781 147.664062 170.570312 C 147.035156 170.9375 146.6875 171.871094 147.105469 172.507812 C 149.195312 175.683594 150.75 179.128906 151.691406 182.8125 C 152.136719 184.554688 154.878906 183.804688 154.433594 182.058594 C 154.429688 182.046875 154.425781 182.085938 154.421875 182.0625 Z M 84.171875 18.554688 C 85.238281 23.214844 86.917969 27.726562 89.226562 31.914062 C 90.09375 33.492188 92.550781 32.0625 91.679688 30.480469 C 89.480469 26.492188 87.898438 22.242188 86.882812 17.804688 C 86.484375 16.050781 83.746094 16.800781 84.144531 18.558594 C 84.148438 18.566406 84.167969 18.542969 84.171875 18.554688 Z M 84.171875 18.554688 " fill-opacity="1" fill-rule="nonzero"/></g></svg>